<svg width="336" height="164" viewBox="0 0 336 164" fill="none" xmlns="http://www.w3.org/2000/svg">
<path d="M18.2011 134.693C15.4544 134.56 12.8144 134.773 10.2811 135.333C7.74776 135.893 5.24109 136.653 2.76109 137.613C2.12109 137.853 1.62776 137.827 1.28109 137.533C0.961094 137.24 0.801094 136.947 0.801094 136.653C0.98776 136.147 1.32109 135.733 1.80109 135.413C7.26776 132.747 12.7344 131.76 18.2011 132.453C18.4678 132.533 18.6811 132.733 18.8411 133.053C19.0278 133.347 19.0944 133.6 19.0411 133.813C18.9878 134.08 18.9078 134.307 18.8011 134.493C18.6944 134.653 18.4944 134.72 18.2011 134.693ZM12.5211 148.653C12.5211 148.947 12.4144 149.213 12.2011 149.453C12.0144 149.667 11.7744 149.8 11.4811 149.853C10.9478 149.933 10.6011 149.84 10.4411 149.573C10.2811 149.307 10.1878 149 10.1611 148.653C10.1344 146.787 10.0944 144.933 10.0411 143.093C10.0144 141.227 9.93443 139.36 9.80109 137.493C9.80109 137.387 9.78776 137.267 9.76109 137.133C9.73443 136.973 9.73443 136.827 9.76109 136.693C9.78776 136.533 9.84109 136.4 9.92109 136.293C10.0278 136.187 10.1878 136.107 10.4011 136.053C11.0144 135.947 11.4544 136.053 11.7211 136.373C11.9878 136.667 12.1211 136.96 12.1211 137.253C12.3344 139.173 12.4678 141.08 12.5211 142.973C12.5744 144.867 12.5744 146.76 12.5211 148.653ZM35.3277 134.693C35.701 136.853 35.981 139.013 36.1677 141.173C36.3543 143.307 36.501 145.44 36.6077 147.573C36.6343 147.813 36.6077 148.027 36.5277 148.213C36.4477 148.373 36.341 148.52 36.2077 148.653C36.101 148.787 35.981 148.893 35.8477 148.973C35.741 149.053 35.6477 149.093 35.5677 149.093C35.2743 149.093 34.981 148.96 34.6877 148.693C34.421 148.4 34.261 148.027 34.2077 147.573C34.1277 146.56 34.0477 145.547 33.9677 144.533C33.8877 143.52 33.7943 142.507 33.6877 141.493C30.8877 142.267 27.9277 142.947 24.8077 143.533C24.9143 144.12 25.021 144.707 25.1277 145.293C25.2343 145.88 25.3543 146.467 25.4877 147.053C25.5143 147.16 25.5277 147.333 25.5277 147.573C25.5543 147.813 25.541 148.067 25.4877 148.333C25.461 148.6 25.381 148.853 25.2477 149.093C25.141 149.307 24.9677 149.467 24.7277 149.573C24.5143 149.6 24.2877 149.533 24.0477 149.373C23.8077 149.213 23.6477 149.053 23.5677 148.893C23.2477 148.067 22.941 147.08 22.6477 145.933C22.381 144.787 22.141 143.587 21.9277 142.333C21.741 141.053 21.6077 139.76 21.5277 138.453C21.4477 137.147 21.4343 135.893 21.4877 134.693C21.541 134.293 21.6877 134.013 21.9277 133.853C22.1943 133.667 22.4343 133.573 22.6477 133.573C22.8877 133.573 23.0877 133.653 23.2477 133.813C23.4343 133.973 23.581 134.173 23.6877 134.413C23.7943 134.653 23.8743 134.893 23.9277 135.133C23.981 135.373 24.0077 135.573 24.0077 135.733C24.0343 136.587 24.0743 137.427 24.1277 138.253C24.181 139.08 24.2743 139.907 24.4077 140.733C25.7677 140.547 27.2477 140.293 28.8477 139.973C30.4477 139.627 31.9543 139.24 33.3677 138.813C33.3143 138.2 33.2477 137.587 33.1677 136.973C33.0877 136.333 33.0077 135.707 32.9277 135.093C32.9277 134.64 33.061 134.24 33.3277 133.893C33.621 133.547 33.9143 133.373 34.2077 133.373C34.421 133.373 34.6343 133.48 34.8477 133.693C35.0877 133.907 35.2477 134.24 35.3277 134.693ZM44.1736 147.213C44.2003 147.32 44.2136 147.48 44.2136 147.693C44.2136 147.88 44.1736 148.08 44.0936 148.293C44.0136 148.48 43.8936 148.653 43.7336 148.813C43.6003 148.947 43.4003 149.013 43.1336 149.013C42.5469 148.64 42.0536 148.147 41.6536 147.533C41.4403 146.733 41.2403 145.813 41.0536 144.773C40.8936 143.733 40.7603 142.653 40.6536 141.533C40.5469 140.387 40.4669 139.227 40.4136 138.053C40.3869 136.88 40.3869 135.747 40.4136 134.653C40.4136 134.467 40.4269 134.227 40.4536 133.933C40.5069 133.64 40.5869 133.36 40.6936 133.093C40.8003 132.8 40.9336 132.56 41.0936 132.373C41.2536 132.16 41.4803 132.053 41.7736 132.053C42.1203 132.053 42.4003 132.16 42.6136 132.373C42.8269 132.587 42.9336 132.933 42.9336 133.413C42.9069 134.48 42.9069 135.627 42.9336 136.853C42.9869 138.053 43.0669 139.267 43.1736 140.493C43.2803 141.72 43.4136 142.92 43.5736 144.093C43.7603 145.24 43.9603 146.28 44.1736 147.213ZM58.452 133.573C58.3454 133.707 58.1454 133.813 57.852 133.893C57.5854 133.947 57.3054 133.867 57.012 133.653C56.7987 133.493 56.5454 133.333 56.252 133.173C55.9587 132.987 55.6387 132.813 55.292 132.653C54.9454 132.493 54.5987 132.36 54.252 132.253C53.9054 132.147 53.572 132.093 53.252 132.093C52.852 132.093 52.4254 132.187 51.972 132.373C51.5454 132.56 51.172 132.827 50.852 133.173C50.2387 133.84 50.012 134.493 50.172 135.133C50.3587 135.747 50.8254 136.32 51.572 136.853C52.052 137.2 52.572 137.56 53.132 137.933C53.692 138.28 54.2387 138.627 54.772 138.973C55.332 139.32 55.852 139.653 56.332 139.973C56.8387 140.293 57.2787 140.573 57.652 140.813C58.132 141.133 58.5854 141.48 59.012 141.853C59.4387 142.227 59.812 142.653 60.132 143.133C60.452 143.587 60.7054 144.107 60.892 144.693C61.0787 145.28 61.172 145.947 61.172 146.693C60.9854 148.16 60.3987 149.333 59.412 150.213C58.452 151.067 57.332 151.613 56.052 151.853C54.932 152.067 53.8254 152.027 52.732 151.733C51.6654 151.44 50.7587 150.88 50.012 150.053C49.8254 149.84 49.6654 149.547 49.532 149.173C49.3987 148.8 49.3854 148.533 49.492 148.373C49.652 148.133 49.932 147.973 50.332 147.893C50.732 147.787 51.0387 147.8 51.252 147.933C51.8654 148.493 52.5854 148.907 53.412 149.173C54.2387 149.413 55.1054 149.427 56.012 149.213C56.7054 149.053 57.2654 148.76 57.692 148.333C58.1187 147.88 58.3854 147.373 58.492 146.813C58.6254 146.227 58.5454 145.627 58.252 145.013C57.9854 144.373 57.492 143.8 56.772 143.293C55.6787 142.467 54.5054 141.693 53.252 140.973C52.0254 140.253 50.772 139.427 49.492 138.493C48.8787 137.96 48.4254 137.373 48.132 136.733C47.8654 136.093 47.732 135.467 47.732 134.853C47.732 134.213 47.8654 133.613 48.132 133.053C48.3987 132.467 48.772 131.947 49.252 131.493C49.732 131.013 50.292 130.627 50.932 130.333C51.572 130.04 52.2787 129.867 53.052 129.813C54.1187 129.76 55.1454 129.987 56.132 130.493C57.1187 130.973 57.9187 131.573 58.532 132.293C58.6654 132.453 58.7187 132.653 58.692 132.893C58.692 133.133 58.612 133.36 58.452 133.573ZM79.7595 147.213C79.7862 147.32 79.7995 147.48 79.7995 147.693C79.7995 147.88 79.7595 148.08 79.6795 148.293C79.5995 148.48 79.4795 148.653 79.3195 148.813C79.1862 148.947 78.9862 149.013 78.7195 149.013C78.1329 148.64 77.6395 148.147 77.2395 147.533C77.0262 146.733 76.8262 145.813 76.6395 144.773C76.4795 143.733 76.3462 142.653 76.2395 141.533C76.1329 140.387 76.0529 139.227 75.9995 138.053C75.9729 136.88 75.9729 135.747 75.9995 134.653C75.9995 134.467 76.0129 134.227 76.0395 133.933C76.0929 133.64 76.1729 133.36 76.2795 133.093C76.3862 132.8 76.5195 132.56 76.6795 132.373C76.8395 132.16 77.0662 132.053 77.3595 132.053C77.7062 132.053 77.9862 132.16 78.1995 132.373C78.4129 132.587 78.5195 132.933 78.5195 133.413C78.4929 134.48 78.4929 135.627 78.5195 136.853C78.5729 138.053 78.6529 139.267 78.7595 140.493C78.8662 141.72 78.9995 142.92 79.1595 144.093C79.3462 145.24 79.5462 146.28 79.7595 147.213ZM94.038 133.573C93.9313 133.707 93.7313 133.813 93.438 133.893C93.1713 133.947 92.8913 133.867 92.598 133.653C92.3846 133.493 92.1313 133.333 91.838 133.173C91.5446 132.987 91.2246 132.813 90.878 132.653C90.5313 132.493 90.1846 132.36 89.838 132.253C89.4913 132.147 89.158 132.093 88.838 132.093C88.438 132.093 88.0113 132.187 87.558 132.373C87.1313 132.56 86.758 132.827 86.438 133.173C85.8246 133.84 85.598 134.493 85.758 135.133C85.9446 135.747 86.4113 136.32 87.158 136.853C87.638 137.2 88.158 137.56 88.718 137.933C89.278 138.28 89.8246 138.627 90.358 138.973C90.918 139.32 91.438 139.653 91.918 139.973C92.4246 140.293 92.8646 140.573 93.238 140.813C93.718 141.133 94.1713 141.48 94.598 141.853C95.0246 142.227 95.398 142.653 95.718 143.133C96.038 143.587 96.2913 144.107 96.478 144.693C96.6646 145.28 96.758 145.947 96.758 146.693C96.5713 148.16 95.9846 149.333 94.998 150.213C94.038 151.067 92.918 151.613 91.638 151.853C90.518 152.067 89.4113 152.027 88.318 151.733C87.2513 151.44 86.3446 150.88 85.598 150.053C85.4113 149.84 85.2513 149.547 85.118 149.173C84.9846 148.8 84.9713 148.533 85.078 148.373C85.238 148.133 85.518 147.973 85.918 147.893C86.318 147.787 86.6246 147.8 86.838 147.933C87.4513 148.493 88.1713 148.907 88.998 149.173C89.8246 149.413 90.6913 149.427 91.598 149.213C92.2913 149.053 92.8513 148.76 93.278 148.333C93.7046 147.88 93.9713 147.373 94.078 146.813C94.2113 146.227 94.1313 145.627 93.838 145.013C93.5713 144.373 93.078 143.8 92.358 143.293C91.2646 142.467 90.0913 141.693 88.838 140.973C87.6113 140.253 86.358 139.427 85.078 138.493C84.4646 137.96 84.0113 137.373 83.718 136.733C83.4513 136.093 83.318 135.467 83.318 134.853C83.318 134.213 83.4513 133.613 83.718 133.053C83.9846 132.467 84.358 131.947 84.838 131.493C85.318 131.013 85.878 130.627 86.518 130.333C87.158 130.04 87.8646 129.867 88.638 129.813C89.7046 129.76 90.7313 129.987 91.718 130.493C92.7046 130.973 93.5046 131.573 94.118 132.293C94.2513 132.453 94.3046 132.653 94.278 132.893C94.278 133.133 94.198 133.36 94.038 133.573ZM126.105 134.253C125.919 136.52 125.692 138.84 125.425 141.213C125.185 143.56 124.852 145.773 124.425 147.853C124.319 148.36 124.172 148.72 123.985 148.933C123.799 149.147 123.532 149.293 123.185 149.373C122.892 149.427 122.479 149.333 121.945 149.093C121.439 148.853 121.012 148.507 120.665 148.053C120.212 147.44 119.719 146.773 119.185 146.053C118.679 145.307 118.119 144.56 117.505 143.813C116.919 143.04 116.292 142.28 115.625 141.533C114.985 140.787 114.305 140.093 113.585 139.453C113.505 141.213 113.439 142.96 113.385 144.693C113.332 146.4 113.332 148.12 113.385 149.853C113.385 150.093 113.172 150.213 112.745 150.213C112.239 150.213 111.825 149.96 111.505 149.453C111.185 148.92 110.999 148.387 110.945 147.853C110.865 147.32 110.825 146.56 110.825 145.573C110.825 144.56 110.839 143.507 110.865 142.413C110.919 141.32 110.972 140.267 111.025 139.253C111.079 138.24 111.132 137.44 111.185 136.853C111.239 136.213 111.385 135.747 111.625 135.453C111.892 135.16 112.145 135.027 112.385 135.053C112.919 135.107 113.265 135.267 113.425 135.533C113.612 135.773 113.719 136.08 113.745 136.453C114.705 137.147 115.585 137.893 116.385 138.693C117.212 139.493 117.959 140.307 118.625 141.133C119.319 141.96 119.945 142.787 120.505 143.613C121.092 144.413 121.639 145.147 122.145 145.813C122.465 144.213 122.719 142.427 122.905 140.453C123.119 138.48 123.332 136.413 123.545 134.253C123.519 133.987 123.679 133.733 124.025 133.493C124.372 133.227 124.692 133.107 124.985 133.133C125.732 133.187 126.105 133.56 126.105 134.253ZM143.263 142.173C143.103 142.92 142.81 143.64 142.383 144.333C141.983 145 141.516 145.627 140.983 146.213C140.45 146.8 139.863 147.307 139.223 147.733C138.61 148.16 137.983 148.493 137.343 148.733C136.17 149.16 134.996 149.307 133.823 149.173C132.676 149.013 131.65 148.48 130.743 147.573C130.13 146.827 129.69 145.987 129.423 145.053C129.183 144.12 129.063 143.173 129.063 142.213C129.09 141.227 129.223 140.28 129.463 139.373C129.73 138.467 130.063 137.653 130.463 136.933C130.943 136.08 131.516 135.373 132.183 134.813C132.85 134.253 133.583 133.92 134.383 133.813C134.596 133.76 134.77 133.813 134.903 133.973C135.036 134.133 135.103 134.32 135.103 134.533C135.37 134.267 135.783 134.067 136.343 133.933C136.903 133.8 137.53 133.787 138.223 133.893C139.503 134.053 140.516 134.44 141.263 135.053C142.01 135.667 142.556 136.387 142.903 137.213C143.276 138.013 143.463 138.867 143.463 139.773C143.49 140.653 143.423 141.453 143.263 142.173ZM134.543 136.653C134.01 136.893 133.556 137.253 133.183 137.733C132.836 138.187 132.543 138.707 132.303 139.293C132.09 139.88 131.943 140.52 131.863 141.213C131.81 141.88 131.81 142.533 131.863 143.173C131.943 144.107 132.223 144.88 132.703 145.493C133.183 146.08 133.93 146.373 134.943 146.373C135.53 146.373 136.103 146.267 136.663 146.053C137.25 145.813 137.783 145.507 138.263 145.133C138.743 144.76 139.183 144.32 139.583 143.813C139.983 143.28 140.303 142.733 140.543 142.173C140.676 141.88 140.783 141.52 140.863 141.093C140.943 140.64 140.97 140.187 140.943 139.733C140.916 139.253 140.81 138.8 140.623 138.373C140.436 137.947 140.143 137.587 139.743 137.293C139.183 136.893 138.516 136.653 137.743 136.573C136.97 136.493 136.156 136.667 135.303 137.093C135.143 137.2 134.956 137.227 134.743 137.173C134.556 137.093 134.49 136.92 134.543 136.653ZM163.201 134.693C160.454 134.56 157.814 134.773 155.281 135.333C152.748 135.893 150.241 136.653 147.761 137.613C147.121 137.853 146.628 137.827 146.281 137.533C145.961 137.24 145.801 136.947 145.801 136.653C145.988 136.147 146.321 135.733 146.801 135.413C152.268 132.747 157.734 131.76 163.201 132.453C163.468 132.533 163.681 132.733 163.841 133.053C164.028 133.347 164.094 133.6 164.041 133.813C163.988 134.08 163.908 134.307 163.801 134.493C163.694 134.653 163.494 134.72 163.201 134.693ZM157.521 148.653C157.521 148.947 157.414 149.213 157.201 149.453C157.014 149.667 156.774 149.8 156.481 149.853C155.948 149.933 155.601 149.84 155.441 149.573C155.281 149.307 155.188 149 155.161 148.653C155.134 146.787 155.094 144.933 155.041 143.093C155.014 141.227 154.934 139.36 154.801 137.493C154.801 137.387 154.788 137.267 154.761 137.133C154.734 136.973 154.734 136.827 154.761 136.693C154.788 136.533 154.841 136.4 154.921 136.293C155.028 136.187 155.188 136.107 155.401 136.053C156.014 135.947 156.454 136.053 156.721 136.373C156.988 136.667 157.121 136.96 157.121 137.253C157.334 139.173 157.468 141.08 157.521 142.973C157.574 144.867 157.574 146.76 157.521 148.653ZM197.779 152.093C197.485 152.093 197.179 151.867 196.859 151.413C196.565 150.96 196.405 150.52 196.379 150.093C196.165 148.547 195.899 146.747 195.579 144.693C195.285 142.613 194.885 140.16 194.379 137.333C193.579 138.853 192.792 140.36 192.019 141.853C191.245 143.347 190.472 144.84 189.699 146.333C189.219 147.267 188.725 147.733 188.219 147.733C187.472 147.733 186.885 147.347 186.459 146.573C185.525 145.213 184.552 143.947 183.539 142.773C182.552 141.573 181.525 140.387 180.459 139.213C180.405 141 180.419 142.76 180.499 144.493C180.605 146.2 180.779 147.867 181.019 149.493C181.072 149.787 181.032 150.053 180.899 150.293C180.792 150.507 180.672 150.64 180.539 150.693C180.165 150.827 179.792 150.747 179.419 150.453C179.045 150.16 178.819 149.84 178.739 149.493C178.499 148.533 178.325 147.467 178.219 146.293C178.112 145.12 178.032 143.933 177.979 142.733C177.952 141.533 177.939 140.347 177.939 139.173C177.939 138 177.952 136.933 177.979 135.973C177.979 134.907 178.325 134.373 179.019 134.373C179.445 134.373 179.805 134.533 180.099 134.853C180.392 135.147 180.552 135.573 180.579 136.133C181.912 137.467 183.165 138.84 184.339 140.253C185.539 141.64 186.699 143.053 187.819 144.493C188.752 142.813 189.699 141.093 190.659 139.333C191.619 137.547 192.699 135.813 193.899 134.133C193.952 133.84 194.099 133.547 194.339 133.253C194.579 132.933 194.845 132.72 195.139 132.613C195.432 132.507 195.739 132.627 196.059 132.973C196.379 133.32 196.592 133.72 196.699 134.173C197.152 136.867 197.539 139.56 197.859 142.253C198.205 144.947 198.539 147.64 198.859 150.333C198.912 150.84 198.819 151.267 198.579 151.613C198.339 151.933 198.072 152.093 197.779 152.093ZM213.793 140.693C213.899 140.96 213.793 141.227 213.473 141.493C213.153 141.733 212.646 141.893 211.953 141.973C210.753 142.133 209.526 142.307 208.273 142.493C207.019 142.653 205.739 142.827 204.433 143.013C204.379 144.373 204.379 145.733 204.433 147.093C205.046 147.093 205.779 147.04 206.633 146.933C207.513 146.8 208.406 146.64 209.313 146.453C210.219 146.267 211.086 146.08 211.913 145.893C212.766 145.68 213.486 145.507 214.073 145.373C214.366 145.293 214.673 145.24 214.993 145.213C215.313 145.16 215.593 145.16 215.833 145.213C216.099 145.24 216.313 145.333 216.473 145.493C216.633 145.653 216.713 145.88 216.713 146.173C216.713 146.253 216.619 146.373 216.433 146.533C216.246 146.693 216.006 146.867 215.713 147.053C215.446 147.213 215.153 147.373 214.833 147.533C214.539 147.667 214.273 147.773 214.033 147.853C212.379 148.387 210.753 148.853 209.153 149.253C207.553 149.627 205.993 149.827 204.473 149.853C203.593 149.88 202.926 149.653 202.473 149.173C202.019 148.667 201.779 147.947 201.753 147.013C201.699 145.707 201.699 144.387 201.753 143.053C201.299 142.787 201.073 142.413 201.073 141.933C201.126 141.427 201.366 141.08 201.793 140.893C201.846 140.12 201.886 139.347 201.913 138.573C201.939 137.773 201.979 136.987 202.033 136.213C201.739 136.16 201.473 136.013 201.233 135.773C201.019 135.533 200.913 135.267 200.913 134.973C200.913 134.733 200.966 134.52 201.073 134.333C201.179 134.12 201.379 133.96 201.673 133.853C202.153 133.747 202.739 133.627 203.433 133.493C204.126 133.36 204.833 133.24 205.553 133.133C206.299 133.027 207.006 132.933 207.673 132.853C208.366 132.773 208.953 132.72 209.433 132.693C209.993 132.64 210.526 132.693 211.033 132.853C211.566 133.013 212.059 133.32 212.513 133.773C212.619 134.147 212.539 134.427 212.273 134.613C212.033 134.8 211.713 134.92 211.313 134.973C210.913 135.027 210.433 135.093 209.873 135.173C209.313 135.227 208.726 135.293 208.113 135.373C207.526 135.453 206.926 135.533 206.313 135.613C205.726 135.667 205.166 135.733 204.633 135.813C204.633 135.867 204.633 135.933 204.633 136.013C204.659 136.067 204.673 136.12 204.673 136.173C204.619 136.867 204.579 137.56 204.553 138.253C204.526 138.947 204.499 139.64 204.473 140.333C205.593 140.147 206.739 139.987 207.913 139.853C209.086 139.693 210.019 139.587 210.713 139.533C211.273 139.48 211.819 139.547 212.353 139.733C212.886 139.92 213.366 140.24 213.793 140.693Z" fill="#17CF97"/>
<path d="M335.297 12.2651C335.791 12.93 335.652 13.8696 334.988 14.3638L324.153 22.4171C323.488 22.9113 322.548 22.7729 322.054 22.108C321.56 21.4432 321.698 20.5035 322.363 20.0094L331.994 12.8509L324.836 3.21988C324.341 2.55499 324.48 1.61538 325.145 1.12119C325.81 0.627001 326.749 0.765376 327.243 1.43026L335.297 12.2651ZM109.796 122.086C109.755 122.913 109.051 123.55 108.223 123.509C107.396 123.468 106.758 122.764 106.8 121.936L109.796 122.086ZM333.874 14.6439C290.106 8.19836 234.747 19.4481 189.915 40.2623C167.511 50.6634 147.819 63.4158 133.554 77.4586C119.274 91.5161 110.561 106.735 109.796 122.086L106.8 121.936C107.617 105.542 116.887 89.6561 131.449 75.3207C146.026 60.9707 166.035 48.0413 188.651 37.5413C233.859 16.5532 289.815 5.12313 334.311 11.676L333.874 14.6439Z" fill="#17CF97"/>
</svg>
