<svg width="651" height="345" viewBox="0 0 651 345" fill="none" xmlns="http://www.w3.org/2000/svg">
<path d="M336.48 262.08C336.853 264.24 337.133 266.4 337.32 268.56C337.507 270.693 337.653 272.827 337.76 274.96C337.787 275.2 337.76 275.413 337.68 275.6C337.6 275.76 337.493 275.907 337.36 276.04C337.253 276.173 337.133 276.28 337 276.36C336.893 276.44 336.8 276.48 336.72 276.48C336.427 276.48 336.133 276.347 335.84 276.08C335.573 275.787 335.413 275.413 335.36 274.96C335.28 273.947 335.2 272.933 335.12 271.92C335.04 270.907 334.947 269.893 334.84 268.88C332.04 269.653 329.08 270.333 325.96 270.92C326.067 271.507 326.173 272.093 326.28 272.68C326.387 273.267 326.507 273.853 326.64 274.44C326.667 274.547 326.68 274.72 326.68 274.96C326.707 275.2 326.693 275.453 326.64 275.72C326.613 275.987 326.533 276.24 326.4 276.48C326.293 276.693 326.12 276.853 325.88 276.96C325.667 276.987 325.44 276.92 325.2 276.76C324.96 276.6 324.8 276.44 324.72 276.28C324.4 275.453 324.093 274.467 323.8 273.32C323.533 272.173 323.293 270.973 323.08 269.72C322.893 268.44 322.76 267.147 322.68 265.84C322.6 264.533 322.587 263.28 322.64 262.08C322.693 261.68 322.84 261.4 323.08 261.24C323.347 261.053 323.587 260.96 323.8 260.96C324.04 260.96 324.24 261.04 324.4 261.2C324.587 261.36 324.733 261.56 324.84 261.8C324.947 262.04 325.027 262.28 325.08 262.52C325.133 262.76 325.16 262.96 325.16 263.12C325.187 263.973 325.227 264.813 325.28 265.64C325.333 266.467 325.427 267.293 325.56 268.12C326.92 267.933 328.4 267.68 330 267.36C331.6 267.013 333.107 266.627 334.52 266.2C334.467 265.587 334.4 264.973 334.32 264.36C334.24 263.72 334.16 263.093 334.08 262.48C334.08 262.027 334.213 261.627 334.48 261.28C334.773 260.933 335.067 260.76 335.36 260.76C335.573 260.76 335.787 260.867 336 261.08C336.24 261.293 336.4 261.627 336.48 262.08ZM354.806 269.56C354.646 270.307 354.353 271.027 353.926 271.72C353.526 272.387 353.059 273.013 352.526 273.6C351.993 274.187 351.406 274.693 350.766 275.12C350.153 275.547 349.526 275.88 348.886 276.12C347.713 276.547 346.539 276.693 345.366 276.56C344.219 276.4 343.193 275.867 342.286 274.96C341.673 274.213 341.233 273.373 340.966 272.44C340.726 271.507 340.606 270.56 340.606 269.6C340.633 268.613 340.766 267.667 341.006 266.76C341.273 265.853 341.606 265.04 342.006 264.32C342.486 263.467 343.059 262.76 343.726 262.2C344.393 261.64 345.126 261.307 345.926 261.2C346.139 261.147 346.313 261.2 346.446 261.36C346.579 261.52 346.646 261.707 346.646 261.92C346.913 261.653 347.326 261.453 347.886 261.32C348.446 261.187 349.073 261.173 349.766 261.28C351.046 261.44 352.059 261.827 352.806 262.44C353.553 263.053 354.099 263.773 354.446 264.6C354.819 265.4 355.006 266.253 355.006 267.16C355.033 268.04 354.966 268.84 354.806 269.56ZM346.086 264.04C345.553 264.28 345.099 264.64 344.726 265.12C344.379 265.573 344.086 266.093 343.846 266.68C343.633 267.267 343.486 267.907 343.406 268.6C343.353 269.267 343.353 269.92 343.406 270.56C343.486 271.493 343.766 272.267 344.246 272.88C344.726 273.467 345.473 273.76 346.486 273.76C347.073 273.76 347.646 273.653 348.206 273.44C348.793 273.2 349.326 272.893 349.806 272.52C350.286 272.147 350.726 271.707 351.126 271.2C351.526 270.667 351.846 270.12 352.086 269.56C352.219 269.267 352.326 268.907 352.406 268.48C352.486 268.027 352.513 267.573 352.486 267.12C352.459 266.64 352.353 266.187 352.166 265.76C351.979 265.333 351.686 264.973 351.286 264.68C350.726 264.28 350.059 264.04 349.286 263.96C348.513 263.88 347.699 264.053 346.846 264.48C346.686 264.587 346.499 264.613 346.286 264.56C346.099 264.48 346.033 264.307 346.086 264.04ZM373.664 261.64C373.477 263.907 373.251 266.227 372.984 268.6C372.744 270.947 372.411 273.16 371.984 275.24C371.877 275.747 371.731 276.107 371.544 276.32C371.357 276.533 371.091 276.68 370.744 276.76C370.451 276.813 370.037 276.72 369.504 276.48C368.997 276.24 368.571 275.893 368.224 275.44C367.771 274.827 367.277 274.16 366.744 273.44C366.237 272.693 365.677 271.947 365.064 271.2C364.477 270.427 363.851 269.667 363.184 268.92C362.544 268.173 361.864 267.48 361.144 266.84C361.064 268.6 360.997 270.347 360.944 272.08C360.891 273.787 360.891 275.507 360.944 277.24C360.944 277.48 360.731 277.6 360.304 277.6C359.797 277.6 359.384 277.347 359.064 276.84C358.744 276.307 358.557 275.773 358.504 275.24C358.424 274.707 358.384 273.947 358.384 272.96C358.384 271.947 358.397 270.893 358.424 269.8C358.477 268.707 358.531 267.653 358.584 266.64C358.637 265.627 358.691 264.827 358.744 264.24C358.797 263.6 358.944 263.133 359.184 262.84C359.451 262.547 359.704 262.413 359.944 262.44C360.477 262.493 360.824 262.653 360.984 262.92C361.171 263.16 361.277 263.467 361.304 263.84C362.264 264.533 363.144 265.28 363.944 266.08C364.771 266.88 365.517 267.693 366.184 268.52C366.877 269.347 367.504 270.173 368.064 271C368.651 271.8 369.197 272.533 369.704 273.2C370.024 271.6 370.277 269.813 370.464 267.84C370.677 265.867 370.891 263.8 371.104 261.64C371.077 261.373 371.237 261.12 371.584 260.88C371.931 260.613 372.251 260.493 372.544 260.52C373.291 260.573 373.664 260.947 373.664 261.64ZM388.422 268.08C388.528 268.347 388.422 268.613 388.102 268.88C387.782 269.12 387.275 269.28 386.582 269.36C385.382 269.52 384.155 269.693 382.902 269.88C381.648 270.04 380.368 270.213 379.062 270.4C379.008 271.76 379.008 273.12 379.062 274.48C379.675 274.48 380.408 274.427 381.262 274.32C382.142 274.187 383.035 274.027 383.942 273.84C384.848 273.653 385.715 273.467 386.542 273.28C387.395 273.067 388.115 272.893 388.702 272.76C388.995 272.68 389.302 272.627 389.622 272.6C389.942 272.547 390.222 272.547 390.462 272.6C390.728 272.627 390.942 272.72 391.102 272.88C391.262 273.04 391.342 273.267 391.342 273.56C391.342 273.64 391.248 273.76 391.062 273.92C390.875 274.08 390.635 274.253 390.342 274.44C390.075 274.6 389.782 274.76 389.462 274.92C389.168 275.053 388.902 275.16 388.662 275.24C387.008 275.773 385.382 276.24 383.782 276.64C382.182 277.013 380.622 277.213 379.102 277.24C378.222 277.267 377.555 277.04 377.102 276.56C376.648 276.053 376.408 275.333 376.382 274.4C376.328 273.093 376.328 271.773 376.382 270.44C375.928 270.173 375.702 269.8 375.702 269.32C375.755 268.813 375.995 268.467 376.422 268.28C376.475 267.507 376.515 266.733 376.542 265.96C376.568 265.16 376.608 264.373 376.662 263.6C376.368 263.547 376.102 263.4 375.862 263.16C375.648 262.92 375.542 262.653 375.542 262.36C375.542 262.12 375.595 261.907 375.702 261.72C375.808 261.507 376.008 261.347 376.302 261.24C376.782 261.133 377.368 261.013 378.062 260.88C378.755 260.747 379.462 260.627 380.182 260.52C380.928 260.413 381.635 260.32 382.302 260.24C382.995 260.16 383.582 260.107 384.062 260.08C384.622 260.027 385.155 260.08 385.662 260.24C386.195 260.4 386.688 260.707 387.142 261.16C387.248 261.533 387.168 261.813 386.902 262C386.662 262.187 386.342 262.307 385.942 262.36C385.542 262.413 385.062 262.48 384.502 262.56C383.942 262.613 383.355 262.68 382.742 262.76C382.155 262.84 381.555 262.92 380.942 263C380.355 263.053 379.795 263.12 379.262 263.2C379.262 263.253 379.262 263.32 379.262 263.4C379.288 263.453 379.302 263.507 379.302 263.56C379.248 264.253 379.208 264.947 379.182 265.64C379.155 266.333 379.128 267.027 379.102 267.72C380.222 267.533 381.368 267.373 382.542 267.24C383.715 267.08 384.648 266.973 385.342 266.92C385.902 266.867 386.448 266.933 386.982 267.12C387.515 267.307 387.995 267.627 388.422 268.08ZM403.628 260.96C403.521 261.093 403.321 261.2 403.028 261.28C402.761 261.333 402.481 261.253 402.188 261.04C401.974 260.88 401.721 260.72 401.428 260.56C401.134 260.373 400.814 260.2 400.468 260.04C400.121 259.88 399.774 259.747 399.428 259.64C399.081 259.533 398.748 259.48 398.428 259.48C398.028 259.48 397.601 259.573 397.148 259.76C396.721 259.947 396.348 260.213 396.028 260.56C395.414 261.227 395.188 261.88 395.348 262.52C395.534 263.133 396.001 263.707 396.748 264.24C397.228 264.587 397.748 264.947 398.308 265.32C398.868 265.667 399.414 266.013 399.948 266.36C400.508 266.707 401.028 267.04 401.508 267.36C402.014 267.68 402.454 267.96 402.828 268.2C403.308 268.52 403.761 268.867 404.188 269.24C404.614 269.613 404.988 270.04 405.308 270.52C405.628 270.973 405.881 271.493 406.068 272.08C406.254 272.667 406.348 273.333 406.348 274.08C406.161 275.547 405.574 276.72 404.588 277.6C403.628 278.453 402.508 279 401.228 279.24C400.108 279.453 399.001 279.413 397.908 279.12C396.841 278.827 395.934 278.267 395.188 277.44C395.001 277.227 394.841 276.933 394.708 276.56C394.574 276.187 394.561 275.92 394.668 275.76C394.828 275.52 395.108 275.36 395.508 275.28C395.908 275.173 396.214 275.187 396.428 275.32C397.041 275.88 397.761 276.293 398.588 276.56C399.414 276.8 400.281 276.813 401.188 276.6C401.881 276.44 402.441 276.147 402.868 275.72C403.294 275.267 403.561 274.76 403.668 274.2C403.801 273.613 403.721 273.013 403.428 272.4C403.161 271.76 402.668 271.187 401.948 270.68C400.854 269.853 399.681 269.08 398.428 268.36C397.201 267.64 395.948 266.813 394.668 265.88C394.054 265.347 393.601 264.76 393.308 264.12C393.041 263.48 392.908 262.853 392.908 262.24C392.908 261.6 393.041 261 393.308 260.44C393.574 259.853 393.948 259.333 394.428 258.88C394.908 258.4 395.468 258.013 396.108 257.72C396.748 257.427 397.454 257.253 398.228 257.2C399.294 257.147 400.321 257.373 401.308 257.88C402.294 258.36 403.094 258.96 403.708 259.68C403.841 259.84 403.894 260.04 403.868 260.28C403.868 260.52 403.788 260.747 403.628 260.96ZM425.564 262.08C422.818 261.947 420.178 262.16 417.644 262.72C415.111 263.28 412.604 264.04 410.124 265C409.484 265.24 408.991 265.213 408.644 264.92C408.324 264.627 408.164 264.333 408.164 264.04C408.351 263.533 408.684 263.12 409.164 262.8C414.631 260.133 420.098 259.147 425.564 259.84C425.831 259.92 426.044 260.12 426.204 260.44C426.391 260.733 426.458 260.987 426.404 261.2C426.351 261.467 426.271 261.693 426.164 261.88C426.058 262.04 425.858 262.107 425.564 262.08ZM419.884 276.04C419.884 276.333 419.778 276.6 419.564 276.84C419.378 277.053 419.138 277.187 418.844 277.24C418.311 277.32 417.964 277.227 417.804 276.96C417.644 276.693 417.551 276.387 417.524 276.04C417.498 274.173 417.458 272.32 417.404 270.48C417.378 268.613 417.298 266.747 417.164 264.88C417.164 264.773 417.151 264.653 417.124 264.52C417.098 264.36 417.098 264.213 417.124 264.08C417.151 263.92 417.204 263.787 417.284 263.68C417.391 263.573 417.551 263.493 417.764 263.44C418.378 263.333 418.818 263.44 419.084 263.76C419.351 264.053 419.484 264.347 419.484 264.64C419.698 266.56 419.831 268.467 419.884 270.36C419.938 272.253 419.938 274.147 419.884 276.04ZM432.651 261.92C432.518 262.853 432.398 263.893 432.291 265.04C432.184 266.16 432.078 267.307 431.971 268.48C431.864 269.627 431.758 270.747 431.651 271.84C431.571 272.933 431.504 273.893 431.451 274.72C432.358 274.56 433.358 274.373 434.451 274.16C435.571 273.947 436.704 273.733 437.851 273.52C438.998 273.28 440.118 273.08 441.211 272.92C442.331 272.733 443.344 272.6 444.251 272.52C444.331 272.52 444.424 272.547 444.531 272.6C444.744 272.707 444.851 272.88 444.851 273.12C444.851 273.467 444.784 273.733 444.651 273.92C444.518 274.08 444.358 274.213 444.171 274.32C443.984 274.4 443.784 274.48 443.571 274.56C443.384 274.64 443.211 274.76 443.051 274.92C442.224 275.133 441.318 275.36 440.331 275.6C439.344 275.84 438.331 276.08 437.291 276.32C436.251 276.56 435.211 276.8 434.171 277.04C433.131 277.28 432.158 277.52 431.251 277.76C430.424 277.973 429.798 277.827 429.371 277.32C428.944 276.813 428.771 275.987 428.851 274.84C428.984 272.68 429.144 270.52 429.331 268.36C429.518 266.173 429.744 264 430.011 261.84C430.064 261.387 430.211 261.013 430.451 260.72C430.718 260.427 431.038 260.253 431.411 260.2C432.024 260.12 432.384 260.28 432.491 260.68C432.624 261.053 432.678 261.467 432.651 261.92ZM453.59 269.08C453.483 269.507 453.377 270.133 453.27 270.96C453.19 271.76 453.11 272.613 453.03 273.52C452.977 274.4 452.923 275.253 452.87 276.08C452.843 276.907 452.83 277.547 452.83 278C452.83 278.773 452.403 279.16 451.55 279.16C451.257 279.16 450.977 279.08 450.71 278.92C450.47 278.76 450.35 278.453 450.35 278C450.35 276.88 450.39 275.667 450.47 274.36C450.55 273.053 450.657 271.707 450.79 270.32C449.857 268.613 448.977 266.933 448.15 265.28C447.35 263.627 446.67 262.107 446.11 260.72C446.003 260.48 445.91 260.227 445.83 259.96C445.777 259.667 445.75 259.4 445.75 259.16C445.777 258.92 445.843 258.72 445.95 258.56C446.057 258.373 446.243 258.253 446.51 258.2C446.803 258.173 447.083 258.2 447.35 258.28C447.643 258.333 447.897 258.507 448.11 258.8C448.323 259.36 448.59 260 448.91 260.72C449.23 261.44 449.563 262.173 449.91 262.92C450.257 263.667 450.603 264.387 450.95 265.08C451.297 265.747 451.603 266.32 451.87 266.8C453.07 265.2 454.203 263.56 455.27 261.88C456.363 260.2 457.377 258.6 458.31 257.08C458.657 256.547 459.017 256.253 459.39 256.2C459.763 256.147 460.07 256.227 460.31 256.44C460.523 256.6 460.643 256.867 460.67 257.24C460.723 257.613 460.683 257.947 460.55 258.24C460.097 259.04 459.563 259.92 458.95 260.88C458.363 261.813 457.75 262.76 457.11 263.72C456.497 264.68 455.883 265.627 455.27 266.56C454.657 267.493 454.097 268.333 453.59 269.08ZM464.263 286.12C464.05 285.933 463.996 285.693 464.103 285.4C464.21 285.107 464.316 284.853 464.423 284.64C464.69 284.027 464.93 283.387 465.143 282.72C465.356 282.027 465.53 281.293 465.663 280.52C465.716 280.173 465.903 279.88 466.223 279.64C466.543 279.373 466.97 279.32 467.503 279.48C467.716 279.587 467.836 279.747 467.863 279.96C467.916 280.147 467.943 280.36 467.943 280.6C467.943 280.973 467.89 281.413 467.783 281.92C467.703 282.4 467.583 282.867 467.423 283.32C467.263 283.8 467.076 284.24 466.863 284.64C466.65 285.04 466.45 285.347 466.263 285.56C465.943 285.907 465.596 286.133 465.223 286.24C464.876 286.373 464.556 286.333 464.263 286.12ZM488.568 274.6C488.595 274.707 488.608 274.867 488.608 275.08C488.608 275.267 488.568 275.467 488.488 275.68C488.408 275.867 488.288 276.04 488.128 276.2C487.995 276.333 487.795 276.4 487.528 276.4C486.941 276.027 486.448 275.533 486.048 274.92C485.835 274.12 485.635 273.2 485.448 272.16C485.288 271.12 485.155 270.04 485.048 268.92C484.941 267.773 484.861 266.613 484.808 265.44C484.781 264.267 484.781 263.133 484.808 262.04C484.808 261.853 484.821 261.613 484.848 261.32C484.901 261.027 484.981 260.747 485.088 260.48C485.195 260.187 485.328 259.947 485.488 259.76C485.648 259.547 485.875 259.44 486.168 259.44C486.515 259.44 486.795 259.547 487.008 259.76C487.221 259.973 487.328 260.32 487.328 260.8C487.301 261.867 487.301 263.013 487.328 264.24C487.381 265.44 487.461 266.653 487.568 267.88C487.675 269.107 487.808 270.307 487.968 271.48C488.155 272.627 488.355 273.667 488.568 274.6ZM496.487 252.4C496.753 252.507 496.873 252.72 496.847 253.04C496.82 253.36 496.78 253.627 496.727 253.84C496.62 254.507 496.553 255.2 496.527 255.92C496.5 256.64 496.527 257.387 496.607 258.16C496.66 258.507 496.553 258.853 496.287 259.2C496.047 259.52 495.647 259.667 495.087 259.64C494.873 259.587 494.713 259.48 494.607 259.32C494.5 259.133 494.42 258.92 494.367 258.68C494.26 258.333 494.193 257.92 494.167 257.44C494.14 256.933 494.14 256.427 494.167 255.92C494.22 255.413 494.287 254.947 494.367 254.52C494.473 254.067 494.593 253.707 494.727 253.44C494.94 253.04 495.193 252.733 495.487 252.52C495.807 252.307 496.14 252.267 496.487 252.4ZM522.329 279.48C522.036 279.48 521.729 279.253 521.409 278.8C521.116 278.347 520.956 277.907 520.929 277.48C520.716 275.933 520.449 274.133 520.129 272.08C519.836 270 519.436 267.547 518.929 264.72C518.129 266.24 517.343 267.747 516.569 269.24C515.796 270.733 515.023 272.227 514.249 273.72C513.769 274.653 513.276 275.12 512.769 275.12C512.023 275.12 511.436 274.733 511.009 273.96C510.076 272.6 509.103 271.333 508.089 270.16C507.103 268.96 506.076 267.773 505.009 266.6C504.956 268.387 504.969 270.147 505.049 271.88C505.156 273.587 505.329 275.253 505.569 276.88C505.623 277.173 505.583 277.44 505.449 277.68C505.343 277.893 505.223 278.027 505.089 278.08C504.716 278.213 504.343 278.133 503.969 277.84C503.596 277.547 503.369 277.227 503.289 276.88C503.049 275.92 502.876 274.853 502.769 273.68C502.663 272.507 502.583 271.32 502.529 270.12C502.503 268.92 502.489 267.733 502.489 266.56C502.489 265.387 502.503 264.32 502.529 263.36C502.529 262.293 502.876 261.76 503.569 261.76C503.996 261.76 504.356 261.92 504.649 262.24C504.943 262.533 505.103 262.96 505.129 263.52C506.463 264.853 507.716 266.227 508.889 267.64C510.089 269.027 511.249 270.44 512.369 271.88C513.303 270.2 514.249 268.48 515.209 266.72C516.169 264.933 517.249 263.2 518.449 261.52C518.503 261.227 518.649 260.933 518.889 260.64C519.129 260.32 519.396 260.107 519.689 260C519.983 259.893 520.289 260.013 520.609 260.36C520.929 260.707 521.143 261.107 521.249 261.56C521.703 264.253 522.089 266.947 522.409 269.64C522.756 272.333 523.089 275.027 523.409 277.72C523.463 278.227 523.369 278.653 523.129 279C522.889 279.32 522.623 279.48 522.329 279.48ZM548.354 260.96C548.248 261.093 548.048 261.2 547.754 261.28C547.488 261.333 547.208 261.253 546.914 261.04C546.701 260.88 546.448 260.72 546.154 260.56C545.861 260.373 545.541 260.2 545.194 260.04C544.848 259.88 544.501 259.747 544.154 259.64C543.808 259.533 543.474 259.48 543.154 259.48C542.754 259.48 542.328 259.573 541.874 259.76C541.448 259.947 541.074 260.213 540.754 260.56C540.141 261.227 539.914 261.88 540.074 262.52C540.261 263.133 540.728 263.707 541.474 264.24C541.954 264.587 542.474 264.947 543.034 265.32C543.594 265.667 544.141 266.013 544.674 266.36C545.234 266.707 545.754 267.04 546.234 267.36C546.741 267.68 547.181 267.96 547.554 268.2C548.034 268.52 548.488 268.867 548.914 269.24C549.341 269.613 549.714 270.04 550.034 270.52C550.354 270.973 550.608 271.493 550.794 272.08C550.981 272.667 551.074 273.333 551.074 274.08C550.888 275.547 550.301 276.72 549.314 277.6C548.354 278.453 547.234 279 545.954 279.24C544.834 279.453 543.728 279.413 542.634 279.12C541.568 278.827 540.661 278.267 539.914 277.44C539.728 277.227 539.568 276.933 539.434 276.56C539.301 276.187 539.288 275.92 539.394 275.76C539.554 275.52 539.834 275.36 540.234 275.28C540.634 275.173 540.941 275.187 541.154 275.32C541.768 275.88 542.488 276.293 543.314 276.56C544.141 276.8 545.008 276.813 545.914 276.6C546.608 276.44 547.168 276.147 547.594 275.72C548.021 275.267 548.288 274.76 548.394 274.2C548.528 273.613 548.448 273.013 548.154 272.4C547.888 271.76 547.394 271.187 546.674 270.68C545.581 269.853 544.408 269.08 543.154 268.36C541.928 267.64 540.674 266.813 539.394 265.88C538.781 265.347 538.328 264.76 538.034 264.12C537.768 263.48 537.634 262.853 537.634 262.24C537.634 261.6 537.768 261 538.034 260.44C538.301 259.853 538.674 259.333 539.154 258.88C539.634 258.4 540.194 258.013 540.834 257.72C541.474 257.427 542.181 257.253 542.954 257.2C544.021 257.147 545.048 257.373 546.034 257.88C547.021 258.36 547.821 258.96 548.434 259.68C548.568 259.84 548.621 260.04 548.594 260.28C548.594 260.52 548.514 260.747 548.354 260.96ZM570.291 262.08C567.544 261.947 564.904 262.16 562.371 262.72C559.838 263.28 557.331 264.04 554.851 265C554.211 265.24 553.718 265.213 553.371 264.92C553.051 264.627 552.891 264.333 552.891 264.04C553.078 263.533 553.411 263.12 553.891 262.8C559.358 260.133 564.824 259.147 570.291 259.84C570.558 259.92 570.771 260.12 570.931 260.44C571.118 260.733 571.184 260.987 571.131 261.2C571.078 261.467 570.998 261.693 570.891 261.88C570.784 262.04 570.584 262.107 570.291 262.08ZM564.611 276.04C564.611 276.333 564.504 276.6 564.291 276.84C564.104 277.053 563.864 277.187 563.571 277.24C563.038 277.32 562.691 277.227 562.531 276.96C562.371 276.693 562.278 276.387 562.251 276.04C562.224 274.173 562.184 272.32 562.131 270.48C562.104 268.613 562.024 266.747 561.891 264.88C561.891 264.773 561.878 264.653 561.851 264.52C561.824 264.36 561.824 264.213 561.851 264.08C561.878 263.92 561.931 263.787 562.011 263.68C562.118 263.573 562.278 263.493 562.491 263.44C563.104 263.333 563.544 263.44 563.811 263.76C564.078 264.053 564.211 264.347 564.211 264.64C564.424 266.56 564.558 268.467 564.611 270.36C564.664 272.253 564.664 274.147 564.611 276.04ZM578.178 274.6C578.204 274.707 578.218 274.867 578.218 275.08C578.218 275.267 578.178 275.467 578.098 275.68C578.018 275.867 577.898 276.04 577.738 276.2C577.604 276.333 577.404 276.4 577.138 276.4C576.551 276.027 576.058 275.533 575.658 274.92C575.444 274.12 575.244 273.2 575.058 272.16C574.898 271.12 574.764 270.04 574.658 268.92C574.551 267.773 574.471 266.613 574.418 265.44C574.391 264.267 574.391 263.133 574.418 262.04C574.418 261.853 574.431 261.613 574.458 261.32C574.511 261.027 574.591 260.747 574.698 260.48C574.804 260.187 574.938 259.947 575.098 259.76C575.258 259.547 575.484 259.44 575.778 259.44C576.124 259.44 576.404 259.547 576.618 259.76C576.831 259.973 576.938 260.32 576.938 260.8C576.911 261.867 576.911 263.013 576.938 264.24C576.991 265.44 577.071 266.653 577.178 267.88C577.284 269.107 577.418 270.307 577.578 271.48C577.764 272.627 577.964 273.667 578.178 274.6ZM585.776 261.92C585.643 262.853 585.523 263.893 585.416 265.04C585.309 266.16 585.203 267.307 585.096 268.48C584.989 269.627 584.883 270.747 584.776 271.84C584.696 272.933 584.629 273.893 584.576 274.72C585.483 274.56 586.483 274.373 587.576 274.16C588.696 273.947 589.829 273.733 590.976 273.52C592.123 273.28 593.243 273.08 594.336 272.92C595.456 272.733 596.469 272.6 597.376 272.52C597.456 272.52 597.549 272.547 597.656 272.6C597.869 272.707 597.976 272.88 597.976 273.12C597.976 273.467 597.909 273.733 597.776 273.92C597.643 274.08 597.483 274.213 597.296 274.32C597.109 274.4 596.909 274.48 596.696 274.56C596.509 274.64 596.336 274.76 596.176 274.92C595.349 275.133 594.443 275.36 593.456 275.6C592.469 275.84 591.456 276.08 590.416 276.32C589.376 276.56 588.336 276.8 587.296 277.04C586.256 277.28 585.283 277.52 584.376 277.76C583.549 277.973 582.923 277.827 582.496 277.32C582.069 276.813 581.896 275.987 581.976 274.84C582.109 272.68 582.269 270.52 582.456 268.36C582.643 266.173 582.869 264 583.136 261.84C583.189 261.387 583.336 261.013 583.576 260.72C583.843 260.427 584.163 260.253 584.536 260.2C585.149 260.12 585.509 260.28 585.616 260.68C585.749 261.053 585.803 261.467 585.776 261.92ZM603.315 261.92C603.182 262.853 603.062 263.893 602.955 265.04C602.848 266.16 602.742 267.307 602.635 268.48C602.528 269.627 602.422 270.747 602.315 271.84C602.235 272.933 602.168 273.893 602.115 274.72C603.022 274.56 604.022 274.373 605.115 274.16C606.235 273.947 607.368 273.733 608.515 273.52C609.662 273.28 610.782 273.08 611.875 272.92C612.995 272.733 614.008 272.6 614.915 272.52C614.995 272.52 615.088 272.547 615.195 272.6C615.408 272.707 615.515 272.88 615.515 273.12C615.515 273.467 615.448 273.733 615.315 273.92C615.182 274.08 615.022 274.213 614.835 274.32C614.648 274.4 614.448 274.48 614.235 274.56C614.048 274.64 613.875 274.76 613.715 274.92C612.888 275.133 611.982 275.36 610.995 275.6C610.008 275.84 608.995 276.08 607.955 276.32C606.915 276.56 605.875 276.8 604.835 277.04C603.795 277.28 602.822 277.52 601.915 277.76C601.088 277.973 600.462 277.827 600.035 277.32C599.608 276.813 599.435 275.987 599.515 274.84C599.648 272.68 599.808 270.52 599.995 268.36C600.182 266.173 600.408 264 600.675 261.84C600.728 261.387 600.875 261.013 601.115 260.72C601.382 260.427 601.702 260.253 602.075 260.2C602.688 260.12 603.048 260.28 603.155 260.68C603.288 261.053 603.342 261.467 603.315 261.92ZM326.44 301.92C326.307 302.853 326.187 303.893 326.08 305.04C325.973 306.16 325.867 307.307 325.76 308.48C325.653 309.627 325.547 310.747 325.44 311.84C325.36 312.933 325.293 313.893 325.24 314.72C326.147 314.56 327.147 314.373 328.24 314.16C329.36 313.947 330.493 313.733 331.64 313.52C332.787 313.28 333.907 313.08 335 312.92C336.12 312.733 337.133 312.6 338.04 312.52C338.12 312.52 338.213 312.547 338.32 312.6C338.533 312.707 338.64 312.88 338.64 313.12C338.64 313.467 338.573 313.733 338.44 313.92C338.307 314.08 338.147 314.213 337.96 314.32C337.773 314.4 337.573 314.48 337.36 314.56C337.173 314.64 337 314.76 336.84 314.92C336.013 315.133 335.107 315.36 334.12 315.6C333.133 315.84 332.12 316.08 331.08 316.32C330.04 316.56 329 316.8 327.96 317.04C326.92 317.28 325.947 317.52 325.04 317.76C324.213 317.973 323.587 317.827 323.16 317.32C322.733 316.813 322.56 315.987 322.64 314.84C322.773 312.68 322.933 310.52 323.12 308.36C323.307 306.173 323.533 304 323.8 301.84C323.853 301.387 324 301.013 324.24 300.72C324.507 300.427 324.827 300.253 325.2 300.2C325.813 300.12 326.173 300.28 326.28 300.68C326.413 301.053 326.467 301.467 326.44 301.92ZM351.859 308.08C351.966 308.347 351.859 308.613 351.539 308.88C351.219 309.12 350.712 309.28 350.019 309.36C348.819 309.52 347.592 309.693 346.339 309.88C345.086 310.04 343.806 310.213 342.499 310.4C342.446 311.76 342.446 313.12 342.499 314.48C343.112 314.48 343.846 314.427 344.699 314.32C345.579 314.187 346.472 314.027 347.379 313.84C348.286 313.653 349.152 313.467 349.979 313.28C350.832 313.067 351.552 312.893 352.139 312.76C352.432 312.68 352.739 312.627 353.059 312.6C353.379 312.547 353.659 312.547 353.899 312.6C354.166 312.627 354.379 312.72 354.539 312.88C354.699 313.04 354.779 313.267 354.779 313.56C354.779 313.64 354.686 313.76 354.499 313.92C354.312 314.08 354.072 314.253 353.779 314.44C353.512 314.6 353.219 314.76 352.899 314.92C352.606 315.053 352.339 315.16 352.099 315.24C350.446 315.773 348.819 316.24 347.219 316.64C345.619 317.013 344.059 317.213 342.539 317.24C341.659 317.267 340.992 317.04 340.539 316.56C340.086 316.053 339.846 315.333 339.819 314.4C339.766 313.093 339.766 311.773 339.819 310.44C339.366 310.173 339.139 309.8 339.139 309.32C339.192 308.813 339.432 308.467 339.859 308.28C339.912 307.507 339.952 306.733 339.979 305.96C340.006 305.16 340.046 304.373 340.099 303.6C339.806 303.547 339.539 303.4 339.299 303.16C339.086 302.92 338.979 302.653 338.979 302.36C338.979 302.12 339.032 301.907 339.139 301.72C339.246 301.507 339.446 301.347 339.739 301.24C340.219 301.133 340.806 301.013 341.499 300.88C342.192 300.747 342.899 300.627 343.619 300.52C344.366 300.413 345.072 300.32 345.739 300.24C346.432 300.16 347.019 300.107 347.499 300.08C348.059 300.027 348.592 300.08 349.099 300.24C349.632 300.4 350.126 300.707 350.579 301.16C350.686 301.533 350.606 301.813 350.339 302C350.099 302.187 349.779 302.307 349.379 302.36C348.979 302.413 348.499 302.48 347.939 302.56C347.379 302.613 346.792 302.68 346.179 302.76C345.592 302.84 344.992 302.92 344.379 303C343.792 303.053 343.232 303.12 342.699 303.2C342.699 303.253 342.699 303.32 342.699 303.4C342.726 303.453 342.739 303.507 342.739 303.56C342.686 304.253 342.646 304.947 342.619 305.64C342.592 306.333 342.566 307.027 342.539 307.72C343.659 307.533 344.806 307.373 345.979 307.24C347.152 307.08 348.086 306.973 348.779 306.92C349.339 306.867 349.886 306.933 350.419 307.12C350.952 307.307 351.432 307.627 351.859 308.08ZM358.345 318.04C358.212 318.493 358.039 318.907 357.825 319.28C357.612 319.627 357.385 319.827 357.145 319.88C356.639 320.013 356.252 319.933 355.985 319.64C355.719 319.347 355.612 318.973 355.665 318.52C355.879 316.92 356.225 315.24 356.705 313.48C357.185 311.693 357.745 309.92 358.385 308.16C359.025 306.373 359.719 304.653 360.465 303C361.239 301.32 362.025 299.8 362.825 298.44C362.959 298.227 363.105 298.107 363.265 298.08C363.452 298.027 363.612 298.027 363.745 298.08C363.879 297.973 364.039 297.88 364.225 297.8C364.412 297.72 364.599 297.68 364.785 297.68C364.865 297.68 364.945 297.693 365.025 297.72C365.132 297.747 365.239 297.827 365.345 297.96C365.452 298.093 365.572 298.293 365.705 298.56C365.865 298.8 366.052 299.16 366.265 299.64C366.639 301 367.065 302.4 367.545 303.84C368.052 305.28 368.572 306.72 369.105 308.16C369.185 308.133 369.252 308.12 369.305 308.12C369.385 308.093 369.465 308.067 369.545 308.04C369.839 308.013 370.172 308.027 370.545 308.08C370.919 308.133 371.172 308.32 371.305 308.64C371.465 309.04 371.439 309.387 371.225 309.68C371.012 309.973 370.625 310.267 370.065 310.56C370.412 311.413 370.759 312.253 371.105 313.08C371.452 313.88 371.812 314.667 372.185 315.44C372.212 315.573 372.252 315.787 372.305 316.08C372.359 316.347 372.385 316.627 372.385 316.92C372.412 317.187 372.399 317.44 372.345 317.68C372.292 317.92 372.185 318.08 372.025 318.16C371.839 318.24 371.639 318.227 371.425 318.12C371.239 318.013 371.052 317.88 370.865 317.72C370.679 317.533 370.505 317.347 370.345 317.16C370.212 316.947 370.105 316.76 370.025 316.6C369.572 315.72 369.132 314.84 368.705 313.96C368.305 313.053 367.919 312.147 367.545 311.24C366.425 311.453 365.199 311.64 363.865 311.8C362.559 311.96 361.265 312.067 359.985 312.12C359.692 313.133 359.399 314.133 359.105 315.12C358.839 316.08 358.585 317.053 358.345 318.04ZM364.025 301.24C362.799 303.987 361.732 306.733 360.825 309.48C362.612 309.427 364.519 309.2 366.545 308.8C365.585 306.373 364.745 303.853 364.025 301.24ZM377.784 317.36C377.704 316.373 377.637 315.253 377.584 314C377.557 312.747 377.544 311.467 377.544 310.16C377.544 308.827 377.544 307.52 377.544 306.24C377.57 304.96 377.61 303.8 377.664 302.76C377.664 302.493 377.784 302.293 378.024 302.16C378.29 302 378.504 301.933 378.664 301.96C379.144 302.013 379.464 302.187 379.624 302.48C379.81 302.747 379.93 303.133 379.984 303.64C379.957 304.493 379.93 305.347 379.904 306.2C379.904 307.053 379.917 307.907 379.944 308.76C381.144 308.547 382.144 308.107 382.944 307.44C383.77 306.773 384.357 306.013 384.704 305.16C384.837 304.84 384.93 304.453 384.984 304C385.064 303.547 385.077 303.093 385.024 302.64C384.97 302.16 384.837 301.72 384.624 301.32C384.437 300.893 384.144 300.56 383.744 300.32C383.157 299.973 382.517 299.787 381.824 299.76C381.13 299.733 380.41 299.84 379.664 300.08C378.944 300.293 378.224 300.64 377.504 301.12C376.81 301.6 376.157 302.173 375.544 302.84C375.624 303.24 375.57 303.6 375.384 303.92C375.197 304.213 374.93 304.427 374.584 304.56C374.37 304.613 374.117 304.507 373.824 304.24C373.53 303.947 373.384 303.653 373.384 303.36C373.384 302.293 373.677 301.373 374.264 300.6C374.877 299.8 375.637 299.133 376.544 298.6C377.45 298.067 378.424 297.667 379.464 297.4C380.504 297.133 381.464 297 382.344 297C383.65 297 384.744 297.387 385.624 298.16C386.504 298.907 387.104 299.853 387.424 301C387.984 303 387.837 304.8 386.984 306.4C386.157 308 384.797 309.387 382.904 310.56C384.29 311.413 385.584 312.227 386.784 313C388.01 313.773 389.237 314.613 390.464 315.52C390.624 315.68 390.797 315.92 390.984 316.24C391.197 316.533 391.17 316.987 390.904 317.6C390.744 317.973 390.464 318.187 390.064 318.24C389.69 318.267 389.317 318.147 388.944 317.88C388.357 317.4 387.69 316.907 386.944 316.4C386.224 315.867 385.464 315.347 384.664 314.84C383.864 314.307 383.064 313.8 382.264 313.32C381.464 312.813 380.704 312.347 379.984 311.92C380.01 312.987 380.024 314.053 380.024 315.12C380.05 316.16 380.09 317.187 380.144 318.2C380.144 318.573 380.037 318.84 379.824 319C379.61 319.133 379.344 319.2 379.024 319.2C378.864 319.173 378.717 319.093 378.584 318.96C378.45 318.8 378.317 318.627 378.184 318.44C378.077 318.227 377.984 318.027 377.904 317.84C377.824 317.627 377.784 317.467 377.784 317.36ZM408.273 301.64C408.087 303.907 407.86 306.227 407.593 308.6C407.353 310.947 407.02 313.16 406.593 315.24C406.487 315.747 406.34 316.107 406.153 316.32C405.967 316.533 405.7 316.68 405.353 316.76C405.06 316.813 404.647 316.72 404.113 316.48C403.607 316.24 403.18 315.893 402.833 315.44C402.38 314.827 401.887 314.16 401.353 313.44C400.847 312.693 400.287 311.947 399.673 311.2C399.087 310.427 398.46 309.667 397.793 308.92C397.153 308.173 396.473 307.48 395.753 306.84C395.673 308.6 395.607 310.347 395.553 312.08C395.5 313.787 395.5 315.507 395.553 317.24C395.553 317.48 395.34 317.6 394.913 317.6C394.407 317.6 393.993 317.347 393.673 316.84C393.353 316.307 393.167 315.773 393.113 315.24C393.033 314.707 392.993 313.947 392.993 312.96C392.993 311.947 393.007 310.893 393.033 309.8C393.087 308.707 393.14 307.653 393.193 306.64C393.247 305.627 393.3 304.827 393.353 304.24C393.407 303.6 393.553 303.133 393.793 302.84C394.06 302.547 394.313 302.413 394.553 302.44C395.087 302.493 395.433 302.653 395.593 302.92C395.78 303.16 395.887 303.467 395.913 303.84C396.873 304.533 397.753 305.28 398.553 306.08C399.38 306.88 400.127 307.693 400.793 308.52C401.487 309.347 402.113 310.173 402.673 311C403.26 311.8 403.807 312.533 404.313 313.2C404.633 311.6 404.887 309.813 405.073 307.84C405.287 305.867 405.5 303.8 405.713 301.64C405.687 301.373 405.847 301.12 406.193 300.88C406.54 300.613 406.86 300.493 407.153 300.52C407.9 300.573 408.273 300.947 408.273 301.64ZM415.951 314.6C415.978 314.707 415.991 314.867 415.991 315.08C415.991 315.267 415.951 315.467 415.871 315.68C415.791 315.867 415.671 316.04 415.511 316.2C415.378 316.333 415.178 316.4 414.911 316.4C414.324 316.027 413.831 315.533 413.431 314.92C413.218 314.12 413.018 313.2 412.831 312.16C412.671 311.12 412.538 310.04 412.431 308.92C412.324 307.773 412.244 306.613 412.191 305.44C412.164 304.267 412.164 303.133 412.191 302.04C412.191 301.853 412.204 301.613 412.231 301.32C412.284 301.027 412.364 300.747 412.471 300.48C412.578 300.187 412.711 299.947 412.871 299.76C413.031 299.547 413.258 299.44 413.551 299.44C413.898 299.44 414.178 299.547 414.391 299.76C414.604 299.973 414.711 300.32 414.711 300.8C414.684 301.867 414.684 303.013 414.711 304.24C414.764 305.44 414.844 306.653 414.951 307.88C415.058 309.107 415.191 310.307 415.351 311.48C415.538 312.627 415.738 313.667 415.951 314.6ZM435.109 301.64C434.923 303.907 434.696 306.227 434.429 308.6C434.189 310.947 433.856 313.16 433.429 315.24C433.323 315.747 433.176 316.107 432.989 316.32C432.803 316.533 432.536 316.68 432.189 316.76C431.896 316.813 431.483 316.72 430.949 316.48C430.443 316.24 430.016 315.893 429.669 315.44C429.216 314.827 428.723 314.16 428.189 313.44C427.683 312.693 427.123 311.947 426.509 311.2C425.923 310.427 425.296 309.667 424.629 308.92C423.989 308.173 423.309 307.48 422.589 306.84C422.509 308.6 422.443 310.347 422.389 312.08C422.336 313.787 422.336 315.507 422.389 317.24C422.389 317.48 422.176 317.6 421.749 317.6C421.243 317.6 420.829 317.347 420.509 316.84C420.189 316.307 420.003 315.773 419.949 315.24C419.869 314.707 419.829 313.947 419.829 312.96C419.829 311.947 419.843 310.893 419.869 309.8C419.923 308.707 419.976 307.653 420.029 306.64C420.083 305.627 420.136 304.827 420.189 304.24C420.243 303.6 420.389 303.133 420.629 302.84C420.896 302.547 421.149 302.413 421.389 302.44C421.923 302.493 422.269 302.653 422.429 302.92C422.616 303.16 422.723 303.467 422.749 303.84C423.709 304.533 424.589 305.28 425.389 306.08C426.216 306.88 426.963 307.693 427.629 308.52C428.323 309.347 428.949 310.173 429.509 311C430.096 311.8 430.643 312.533 431.149 313.2C431.469 311.6 431.723 309.813 431.909 307.84C432.123 305.867 432.336 303.8 432.549 301.64C432.523 301.373 432.683 301.12 433.029 300.88C433.376 300.613 433.696 300.493 433.989 300.52C434.736 300.573 435.109 300.947 435.109 301.64ZM444.987 307.44C444.854 307.44 444.68 307.427 444.467 307.4C444.28 307.347 444.094 307.28 443.907 307.2C443.747 307.093 443.6 306.973 443.467 306.84C443.334 306.68 443.267 306.52 443.267 306.36C443.267 306.147 443.387 305.893 443.627 305.6C443.894 305.28 444.32 305.04 444.907 304.88C445.707 304.693 446.547 304.587 447.427 304.56C448.307 304.507 449.187 304.507 450.067 304.56C450.947 304.587 451.814 304.64 452.667 304.72C453.52 304.773 454.32 304.813 455.067 304.84C455.494 304.84 455.774 304.92 455.907 305.08C456.04 305.24 456.107 305.427 456.107 305.64C456.107 306.12 455.894 306.493 455.467 306.76C455.04 307.027 454.614 307.147 454.187 307.12C453.734 307.093 453.254 307.08 452.747 307.08C452.267 307.08 451.76 307.08 451.227 307.08C451.227 307.827 451.254 308.667 451.307 309.6C451.387 310.507 451.467 311.427 451.547 312.36C451.627 313.293 451.707 314.187 451.787 315.04C451.894 315.893 451.987 316.613 452.067 317.2C452.12 317.413 452.067 317.613 451.907 317.8C451.774 317.96 451.56 318.04 451.267 318.04C450.707 318.04 450.294 317.693 450.027 317C449.52 315.693 449.16 314.2 448.947 312.52C447.507 313.4 446.094 313.947 444.707 314.16C443.32 314.373 442.067 314.333 440.947 314.04C439.854 313.72 438.96 313.187 438.267 312.44C437.6 311.667 437.267 310.733 437.267 309.64C437.267 308.6 437.454 307.48 437.827 306.28C438.2 305.08 438.734 303.92 439.427 302.8C440.12 301.68 440.934 300.667 441.867 299.76C442.827 298.827 443.894 298.12 445.067 297.64C445.467 297.533 445.84 297.52 446.187 297.6C446.56 297.653 446.894 297.787 447.187 298C447.507 298.187 447.787 298.427 448.027 298.72C448.294 298.987 448.52 299.253 448.707 299.52C448.84 299.707 448.92 299.907 448.947 300.12C448.974 300.333 448.894 300.533 448.707 300.72C448.307 301.013 447.96 300.987 447.667 300.64C447.214 300.08 446.827 299.747 446.507 299.64C446.214 299.507 445.8 299.613 445.267 299.96C444.734 300.333 444.147 300.907 443.507 301.68C442.867 302.427 442.267 303.267 441.707 304.2C441.174 305.107 440.747 306.053 440.427 307.04C440.107 308 440 308.893 440.107 309.72C440.187 310.44 440.587 310.96 441.307 311.28C442.027 311.573 442.84 311.707 443.747 311.68C444.68 311.653 445.6 311.48 446.507 311.16C447.44 310.84 448.16 310.413 448.667 309.88C448.64 309.427 448.614 308.973 448.587 308.52C448.56 308.04 448.547 307.573 448.547 307.12C447.96 307.173 447.374 307.227 446.787 307.28C446.2 307.307 445.6 307.36 444.987 307.44ZM485.799 302.08C483.052 301.947 480.412 302.16 477.879 302.72C475.345 303.28 472.839 304.04 470.359 305C469.719 305.24 469.225 305.213 468.879 304.92C468.559 304.627 468.399 304.333 468.399 304.04C468.585 303.533 468.919 303.12 469.399 302.8C474.865 300.133 480.332 299.147 485.799 299.84C486.065 299.92 486.279 300.12 486.439 300.44C486.625 300.733 486.692 300.987 486.639 301.2C486.585 301.467 486.505 301.693 486.399 301.88C486.292 302.04 486.092 302.107 485.799 302.08ZM480.119 316.04C480.119 316.333 480.012 316.6 479.799 316.84C479.612 317.053 479.372 317.187 479.079 317.24C478.545 317.32 478.199 317.227 478.039 316.96C477.879 316.693 477.785 316.387 477.759 316.04C477.732 314.173 477.692 312.32 477.639 310.48C477.612 308.613 477.532 306.747 477.399 304.88C477.399 304.773 477.385 304.653 477.359 304.52C477.332 304.36 477.332 304.213 477.359 304.08C477.385 303.92 477.439 303.787 477.519 303.68C477.625 303.573 477.785 303.493 477.999 303.44C478.612 303.333 479.052 303.44 479.319 303.76C479.585 304.053 479.719 304.347 479.719 304.64C479.932 306.56 480.065 308.467 480.119 310.36C480.172 312.253 480.172 314.147 480.119 316.04ZM503.165 309.56C503.005 310.307 502.712 311.027 502.285 311.72C501.885 312.387 501.419 313.013 500.885 313.6C500.352 314.187 499.765 314.693 499.125 315.12C498.512 315.547 497.885 315.88 497.245 316.12C496.072 316.547 494.899 316.693 493.725 316.56C492.579 316.4 491.552 315.867 490.645 314.96C490.032 314.213 489.592 313.373 489.325 312.44C489.085 311.507 488.965 310.56 488.965 309.6C488.992 308.613 489.125 307.667 489.365 306.76C489.632 305.853 489.965 305.04 490.365 304.32C490.845 303.467 491.419 302.76 492.085 302.2C492.752 301.64 493.485 301.307 494.285 301.2C494.499 301.147 494.672 301.2 494.805 301.36C494.939 301.52 495.005 301.707 495.005 301.92C495.272 301.653 495.685 301.453 496.245 301.32C496.805 301.187 497.432 301.173 498.125 301.28C499.405 301.44 500.419 301.827 501.165 302.44C501.912 303.053 502.459 303.773 502.805 304.6C503.179 305.4 503.365 306.253 503.365 307.16C503.392 308.04 503.325 308.84 503.165 309.56ZM494.445 304.04C493.912 304.28 493.459 304.64 493.085 305.12C492.739 305.573 492.445 306.093 492.205 306.68C491.992 307.267 491.845 307.907 491.765 308.6C491.712 309.267 491.712 309.92 491.765 310.56C491.845 311.493 492.125 312.267 492.605 312.88C493.085 313.467 493.832 313.76 494.845 313.76C495.432 313.76 496.005 313.653 496.565 313.44C497.152 313.2 497.685 312.893 498.165 312.52C498.645 312.147 499.085 311.707 499.485 311.2C499.885 310.667 500.205 310.12 500.445 309.56C500.579 309.267 500.685 308.907 500.765 308.48C500.845 308.027 500.872 307.573 500.845 307.12C500.819 306.64 500.712 306.187 500.525 305.76C500.339 305.333 500.045 304.973 499.645 304.68C499.085 304.28 498.419 304.04 497.645 303.96C496.872 303.88 496.059 304.053 495.205 304.48C495.045 304.587 494.859 304.613 494.645 304.56C494.459 304.48 494.392 304.307 494.445 304.04ZM520.743 309.56C520.583 310.307 520.29 311.027 519.863 311.72C519.463 312.387 518.997 313.013 518.463 313.6C517.93 314.187 517.343 314.693 516.703 315.12C516.09 315.547 515.463 315.88 514.823 316.12C513.65 316.547 512.477 316.693 511.303 316.56C510.157 316.4 509.13 315.867 508.223 314.96C507.61 314.213 507.17 313.373 506.903 312.44C506.663 311.507 506.543 310.56 506.543 309.6C506.57 308.613 506.703 307.667 506.943 306.76C507.21 305.853 507.543 305.04 507.943 304.32C508.423 303.467 508.997 302.76 509.663 302.2C510.33 301.64 511.063 301.307 511.863 301.2C512.077 301.147 512.25 301.2 512.383 301.36C512.517 301.52 512.583 301.707 512.583 301.92C512.85 301.653 513.263 301.453 513.823 301.32C514.383 301.187 515.01 301.173 515.703 301.28C516.983 301.44 517.997 301.827 518.743 302.44C519.49 303.053 520.037 303.773 520.383 304.6C520.757 305.4 520.943 306.253 520.943 307.16C520.97 308.04 520.903 308.84 520.743 309.56ZM512.023 304.04C511.49 304.28 511.037 304.64 510.663 305.12C510.317 305.573 510.023 306.093 509.783 306.68C509.57 307.267 509.423 307.907 509.343 308.6C509.29 309.267 509.29 309.92 509.343 310.56C509.423 311.493 509.703 312.267 510.183 312.88C510.663 313.467 511.41 313.76 512.423 313.76C513.01 313.76 513.583 313.653 514.143 313.44C514.73 313.2 515.263 312.893 515.743 312.52C516.223 312.147 516.663 311.707 517.063 311.2C517.463 310.667 517.783 310.12 518.023 309.56C518.157 309.267 518.263 308.907 518.343 308.48C518.423 308.027 518.45 307.573 518.423 307.12C518.397 306.64 518.29 306.187 518.103 305.76C517.917 305.333 517.623 304.973 517.223 304.68C516.663 304.28 515.997 304.04 515.223 303.96C514.45 303.88 513.637 304.053 512.783 304.48C512.623 304.587 512.437 304.613 512.223 304.56C512.037 304.48 511.97 304.307 512.023 304.04Z" fill="#17CF97"/>
<path d="M450.726 241.688C450.608 242.528 449.875 243.058 449.089 242.872L436.278 239.835C435.491 239.649 434.949 238.817 435.067 237.976C435.185 237.136 435.917 236.606 436.703 236.793L448.091 239.492L449.795 227.321C449.913 226.481 450.645 225.951 451.431 226.137C452.218 226.324 452.76 227.156 452.642 227.996L450.726 241.688ZM448.145 242.188C425.381 207.236 413.667 193.299 394.186 180.667C384.382 174.309 372.597 168.275 356.387 160.103C340.196 151.941 319.655 141.675 292.428 126.883L293.572 124.117C320.753 138.884 341.255 149.129 357.449 157.294C373.624 165.448 385.565 171.557 395.536 178.023C415.605 191.037 427.634 205.467 450.459 240.513L448.145 242.188ZM292.428 126.883C238.718 97.7042 189.065 118.02 161.005 146.124C146.942 160.209 138.521 176.038 137.572 188.288C137.102 194.365 138.474 199.389 141.706 202.987C144.96 206.61 150.357 209.075 158.459 209.443L158.539 212.557C150.004 212.169 143.726 209.547 139.711 205.078C135.675 200.585 134.185 194.513 134.704 187.814C135.733 174.512 144.693 158.071 158.972 143.769C187.596 115.101 238.466 94.1792 293.572 124.117L292.428 126.883ZM158.459 209.443C166.694 209.817 171.888 208.59 174.689 206.483C176.054 205.455 176.832 204.235 177.165 202.875C177.503 201.499 177.418 199.844 176.829 197.892C175.638 193.942 172.472 189.079 167.427 183.699C162.412 178.351 155.657 172.616 147.476 166.909C114.718 144.06 59.6587 122.063 3.71732 127.053L3.2834 123.947C59.9826 118.889 115.696 141.155 148.913 164.324C157.226 170.122 164.165 176 169.374 181.555C174.553 187.079 178.14 192.407 179.56 197.115C180.277 199.493 180.462 201.784 179.951 203.868C179.436 205.969 178.246 207.723 176.44 209.082C172.899 211.747 166.94 212.939 158.539 212.557L158.459 209.443Z" fill="#17CF97"/>
</svg>
