<svg width="301" height="201" viewBox="0 0 301 201" fill="none" xmlns="http://www.w3.org/2000/svg">
<path d="M154.119 171.693C151.372 171.56 148.732 171.773 146.199 172.333C143.666 172.893 141.159 173.653 138.679 174.613C138.039 174.853 137.546 174.827 137.199 174.533C136.879 174.24 136.719 173.947 136.719 173.653C136.906 173.147 137.239 172.733 137.719 172.413C143.186 169.747 148.652 168.76 154.119 169.453C154.386 169.533 154.599 169.733 154.759 170.053C154.946 170.347 155.012 170.6 154.959 170.813C154.906 171.08 154.826 171.307 154.719 171.493C154.612 171.653 154.412 171.72 154.119 171.693ZM148.439 185.653C148.439 185.947 148.332 186.213 148.119 186.453C147.932 186.667 147.692 186.8 147.399 186.853C146.866 186.933 146.519 186.84 146.359 186.573C146.199 186.307 146.106 186 146.079 185.653C146.052 183.787 146.012 181.933 145.959 180.093C145.932 178.227 145.852 176.36 145.719 174.493C145.719 174.387 145.706 174.267 145.679 174.133C145.652 173.973 145.652 173.827 145.679 173.693C145.706 173.533 145.759 173.4 145.839 173.293C145.946 173.187 146.106 173.107 146.319 173.053C146.932 172.947 147.372 173.053 147.639 173.373C147.906 173.667 148.039 173.96 148.039 174.253C148.252 176.173 148.386 178.08 148.439 179.973C148.492 181.867 148.492 183.76 148.439 185.653ZM171.246 171.693C171.619 173.853 171.899 176.013 172.086 178.173C172.272 180.307 172.419 182.44 172.526 184.573C172.552 184.813 172.526 185.027 172.446 185.213C172.366 185.373 172.259 185.52 172.126 185.653C172.019 185.787 171.899 185.893 171.766 185.973C171.659 186.053 171.566 186.093 171.486 186.093C171.192 186.093 170.899 185.96 170.606 185.693C170.339 185.4 170.179 185.027 170.126 184.573C170.046 183.56 169.966 182.547 169.886 181.533C169.806 180.52 169.712 179.507 169.606 178.493C166.806 179.267 163.846 179.947 160.726 180.533C160.832 181.12 160.939 181.707 161.046 182.293C161.152 182.88 161.272 183.467 161.406 184.053C161.432 184.16 161.446 184.333 161.446 184.573C161.472 184.813 161.459 185.067 161.406 185.333C161.379 185.6 161.299 185.853 161.166 186.093C161.059 186.307 160.886 186.467 160.646 186.573C160.432 186.6 160.206 186.533 159.966 186.373C159.726 186.213 159.566 186.053 159.486 185.893C159.166 185.067 158.859 184.08 158.566 182.933C158.299 181.787 158.059 180.587 157.846 179.333C157.659 178.053 157.526 176.76 157.446 175.453C157.366 174.147 157.352 172.893 157.406 171.693C157.459 171.293 157.606 171.013 157.846 170.853C158.112 170.667 158.352 170.573 158.566 170.573C158.806 170.573 159.006 170.653 159.166 170.813C159.352 170.973 159.499 171.173 159.606 171.413C159.712 171.653 159.792 171.893 159.846 172.133C159.899 172.373 159.926 172.573 159.926 172.733C159.952 173.587 159.992 174.427 160.046 175.253C160.099 176.08 160.192 176.907 160.326 177.733C161.686 177.547 163.166 177.293 164.766 176.973C166.366 176.627 167.872 176.24 169.286 175.813C169.232 175.2 169.166 174.587 169.086 173.973C169.006 173.333 168.926 172.707 168.846 172.093C168.846 171.64 168.979 171.24 169.246 170.893C169.539 170.547 169.832 170.373 170.126 170.373C170.339 170.373 170.552 170.48 170.766 170.693C171.006 170.907 171.166 171.24 171.246 171.693ZM177.252 187.653C177.118 188.107 176.945 188.52 176.732 188.893C176.518 189.24 176.292 189.44 176.052 189.493C175.545 189.627 175.158 189.547 174.892 189.253C174.625 188.96 174.518 188.587 174.572 188.133C174.785 186.533 175.132 184.853 175.612 183.093C176.092 181.307 176.652 179.533 177.292 177.773C177.932 175.987 178.625 174.267 179.372 172.613C180.145 170.933 180.932 169.413 181.732 168.053C181.865 167.84 182.012 167.72 182.172 167.693C182.358 167.64 182.518 167.64 182.652 167.693C182.785 167.587 182.945 167.493 183.132 167.413C183.318 167.333 183.505 167.293 183.692 167.293C183.772 167.293 183.852 167.307 183.932 167.333C184.038 167.36 184.145 167.44 184.252 167.573C184.358 167.707 184.478 167.907 184.612 168.173C184.772 168.413 184.958 168.773 185.172 169.253C185.545 170.613 185.972 172.013 186.452 173.453C186.958 174.893 187.478 176.333 188.012 177.773C188.092 177.747 188.158 177.733 188.212 177.733C188.292 177.707 188.372 177.68 188.452 177.653C188.745 177.627 189.078 177.64 189.452 177.693C189.825 177.747 190.078 177.933 190.212 178.253C190.372 178.653 190.345 179 190.132 179.293C189.918 179.587 189.532 179.88 188.972 180.173C189.318 181.027 189.665 181.867 190.012 182.693C190.358 183.493 190.718 184.28 191.092 185.053C191.118 185.187 191.158 185.4 191.212 185.693C191.265 185.96 191.292 186.24 191.292 186.533C191.318 186.8 191.305 187.053 191.252 187.293C191.198 187.533 191.092 187.693 190.932 187.773C190.745 187.853 190.545 187.84 190.332 187.733C190.145 187.627 189.958 187.493 189.772 187.333C189.585 187.147 189.412 186.96 189.252 186.773C189.118 186.56 189.012 186.373 188.932 186.213C188.478 185.333 188.038 184.453 187.612 183.573C187.212 182.667 186.825 181.76 186.452 180.853C185.332 181.067 184.105 181.253 182.772 181.413C181.465 181.573 180.172 181.68 178.892 181.733C178.598 182.747 178.305 183.747 178.012 184.733C177.745 185.693 177.492 186.667 177.252 187.653ZM182.932 170.853C181.705 173.6 180.638 176.347 179.732 179.093C181.518 179.04 183.425 178.813 185.452 178.413C184.492 175.987 183.652 173.467 182.932 170.853ZM210.33 171.693C207.583 171.56 204.943 171.773 202.41 172.333C199.877 172.893 197.37 173.653 194.89 174.613C194.25 174.853 193.757 174.827 193.41 174.533C193.09 174.24 192.93 173.947 192.93 173.653C193.117 173.147 193.45 172.733 193.93 172.413C199.397 169.747 204.863 168.76 210.33 169.453C210.597 169.533 210.81 169.733 210.97 170.053C211.157 170.347 211.223 170.6 211.17 170.813C211.117 171.08 211.037 171.307 210.93 171.493C210.823 171.653 210.623 171.72 210.33 171.693ZM204.65 185.653C204.65 185.947 204.543 186.213 204.33 186.453C204.143 186.667 203.903 186.8 203.61 186.853C203.077 186.933 202.73 186.84 202.57 186.573C202.41 186.307 202.317 186 202.29 185.653C202.263 183.787 202.223 181.933 202.17 180.093C202.143 178.227 202.063 176.36 201.93 174.493C201.93 174.387 201.917 174.267 201.89 174.133C201.863 173.973 201.863 173.827 201.89 173.693C201.917 173.533 201.97 173.4 202.05 173.293C202.157 173.187 202.317 173.107 202.53 173.053C203.143 172.947 203.583 173.053 203.85 173.373C204.117 173.667 204.25 173.96 204.25 174.253C204.463 176.173 204.597 178.08 204.65 179.973C204.703 181.867 204.703 183.76 204.65 185.653ZM215.777 166.533C215.643 166.213 215.457 165.907 215.217 165.613C214.977 165.32 214.79 164.933 214.657 164.453C214.47 163.84 214.443 163.293 214.577 162.813C214.737 162.333 215.003 162 215.377 161.813C215.723 161.653 216.057 161.6 216.377 161.653C216.697 161.707 216.99 161.84 217.257 162.053C217.523 162.24 217.75 162.507 217.937 162.853C218.123 163.173 218.257 163.533 218.337 163.933C218.443 164.573 218.457 165.333 218.377 166.213C218.323 167.093 218.19 167.987 217.977 168.893C217.763 169.773 217.47 170.64 217.097 171.493C216.75 172.32 216.35 173.027 215.897 173.613C215.71 173.853 215.51 174 215.297 174.053C215.083 174.08 214.897 174.053 214.737 173.973C214.577 173.867 214.457 173.72 214.377 173.533C214.323 173.32 214.35 173.107 214.457 172.893C214.723 172.36 214.95 171.867 215.137 171.413C215.323 170.96 215.47 170.507 215.577 170.053C215.71 169.6 215.803 169.147 215.857 168.693C215.91 168.213 215.937 167.707 215.937 167.173C215.937 166.96 215.883 166.747 215.777 166.533ZM234.097 170.573C233.99 170.707 233.79 170.813 233.497 170.893C233.23 170.947 232.95 170.867 232.657 170.653C232.443 170.493 232.19 170.333 231.897 170.173C231.603 169.987 231.283 169.813 230.937 169.653C230.59 169.493 230.243 169.36 229.897 169.253C229.55 169.147 229.217 169.093 228.897 169.093C228.497 169.093 228.07 169.187 227.617 169.373C227.19 169.56 226.817 169.827 226.497 170.173C225.883 170.84 225.657 171.493 225.817 172.133C226.003 172.747 226.47 173.32 227.217 173.853C227.697 174.2 228.217 174.56 228.777 174.933C229.337 175.28 229.883 175.627 230.417 175.973C230.977 176.32 231.497 176.653 231.977 176.973C232.483 177.293 232.923 177.573 233.297 177.813C233.777 178.133 234.23 178.48 234.657 178.853C235.083 179.227 235.457 179.653 235.777 180.133C236.097 180.587 236.35 181.107 236.537 181.693C236.723 182.28 236.817 182.947 236.817 183.693C236.63 185.16 236.043 186.333 235.057 187.213C234.097 188.067 232.977 188.613 231.697 188.853C230.577 189.067 229.47 189.027 228.377 188.733C227.31 188.44 226.403 187.88 225.657 187.053C225.47 186.84 225.31 186.547 225.177 186.173C225.043 185.8 225.03 185.533 225.137 185.373C225.297 185.133 225.577 184.973 225.977 184.893C226.377 184.787 226.683 184.8 226.897 184.933C227.51 185.493 228.23 185.907 229.057 186.173C229.883 186.413 230.75 186.427 231.657 186.213C232.35 186.053 232.91 185.76 233.337 185.333C233.763 184.88 234.03 184.373 234.137 183.813C234.27 183.227 234.19 182.627 233.897 182.013C233.63 181.373 233.137 180.8 232.417 180.293C231.323 179.467 230.15 178.693 228.897 177.973C227.67 177.253 226.417 176.427 225.137 175.493C224.523 174.96 224.07 174.373 223.777 173.733C223.51 173.093 223.377 172.467 223.377 171.853C223.377 171.213 223.51 170.613 223.777 170.053C224.043 169.467 224.417 168.947 224.897 168.493C225.377 168.013 225.937 167.627 226.577 167.333C227.217 167.04 227.923 166.867 228.697 166.813C229.763 166.76 230.79 166.987 231.777 167.493C232.763 167.973 233.563 168.573 234.177 169.293C234.31 169.453 234.363 169.653 234.337 169.893C234.337 170.133 234.257 170.36 234.097 170.573ZM270.884 189.093C270.591 189.093 270.284 188.867 269.964 188.413C269.671 187.96 269.511 187.52 269.484 187.093C269.271 185.547 269.004 183.747 268.684 181.693C268.391 179.613 267.991 177.16 267.484 174.333C266.684 175.853 265.897 177.36 265.124 178.853C264.351 180.347 263.577 181.84 262.804 183.333C262.324 184.267 261.831 184.733 261.324 184.733C260.577 184.733 259.991 184.347 259.564 183.573C258.631 182.213 257.657 180.947 256.644 179.773C255.657 178.573 254.631 177.387 253.564 176.213C253.511 178 253.524 179.76 253.604 181.493C253.711 183.2 253.884 184.867 254.124 186.493C254.177 186.787 254.137 187.053 254.004 187.293C253.897 187.507 253.777 187.64 253.644 187.693C253.271 187.827 252.897 187.747 252.524 187.453C252.151 187.16 251.924 186.84 251.844 186.493C251.604 185.533 251.431 184.467 251.324 183.293C251.217 182.12 251.137 180.933 251.084 179.733C251.057 178.533 251.044 177.347 251.044 176.173C251.044 175 251.057 173.933 251.084 172.973C251.084 171.907 251.431 171.373 252.124 171.373C252.551 171.373 252.911 171.533 253.204 171.853C253.497 172.147 253.657 172.573 253.684 173.133C255.017 174.467 256.271 175.84 257.444 177.253C258.644 178.64 259.804 180.053 260.924 181.493C261.857 179.813 262.804 178.093 263.764 176.333C264.724 174.547 265.804 172.813 267.004 171.133C267.057 170.84 267.204 170.547 267.444 170.253C267.684 169.933 267.951 169.72 268.244 169.613C268.537 169.507 268.844 169.627 269.164 169.973C269.484 170.32 269.697 170.72 269.804 171.173C270.257 173.867 270.644 176.56 270.964 179.253C271.311 181.947 271.644 184.64 271.964 187.333C272.017 187.84 271.924 188.267 271.684 188.613C271.444 188.933 271.177 189.093 270.884 189.093ZM286.898 177.693C287.005 177.96 286.898 178.227 286.578 178.493C286.258 178.733 285.751 178.893 285.058 178.973C283.858 179.133 282.631 179.307 281.378 179.493C280.125 179.653 278.845 179.827 277.538 180.013C277.485 181.373 277.485 182.733 277.538 184.093C278.151 184.093 278.885 184.04 279.738 183.933C280.618 183.8 281.511 183.64 282.418 183.453C283.325 183.267 284.191 183.08 285.018 182.893C285.871 182.68 286.591 182.507 287.178 182.373C287.471 182.293 287.778 182.24 288.098 182.213C288.418 182.16 288.698 182.16 288.938 182.213C289.205 182.24 289.418 182.333 289.578 182.493C289.738 182.653 289.818 182.88 289.818 183.173C289.818 183.253 289.725 183.373 289.538 183.533C289.351 183.693 289.111 183.867 288.818 184.053C288.551 184.213 288.258 184.373 287.938 184.533C287.645 184.667 287.378 184.773 287.138 184.853C285.485 185.387 283.858 185.853 282.258 186.253C280.658 186.627 279.098 186.827 277.578 186.853C276.698 186.88 276.031 186.653 275.578 186.173C275.125 185.667 274.885 184.947 274.858 184.013C274.805 182.707 274.805 181.387 274.858 180.053C274.405 179.787 274.178 179.413 274.178 178.933C274.231 178.427 274.471 178.08 274.898 177.893C274.951 177.12 274.991 176.347 275.018 175.573C275.045 174.773 275.085 173.987 275.138 173.213C274.845 173.16 274.578 173.013 274.338 172.773C274.125 172.533 274.018 172.267 274.018 171.973C274.018 171.733 274.071 171.52 274.178 171.333C274.285 171.12 274.485 170.96 274.778 170.853C275.258 170.747 275.845 170.627 276.538 170.493C277.231 170.36 277.938 170.24 278.658 170.133C279.405 170.027 280.111 169.933 280.778 169.853C281.471 169.773 282.058 169.72 282.538 169.693C283.098 169.64 283.631 169.693 284.138 169.853C284.671 170.013 285.165 170.32 285.618 170.773C285.725 171.147 285.645 171.427 285.378 171.613C285.138 171.8 284.818 171.92 284.418 171.973C284.018 172.027 283.538 172.093 282.978 172.173C282.418 172.227 281.831 172.293 281.218 172.373C280.631 172.453 280.031 172.533 279.418 172.613C278.831 172.667 278.271 172.733 277.738 172.813C277.738 172.867 277.738 172.933 277.738 173.013C277.765 173.067 277.778 173.12 277.778 173.173C277.725 173.867 277.685 174.56 277.658 175.253C277.631 175.947 277.605 176.64 277.578 177.333C278.698 177.147 279.845 176.987 281.018 176.853C282.191 176.693 283.125 176.587 283.818 176.533C284.378 176.48 284.925 176.547 285.458 176.733C285.991 176.92 286.471 177.24 286.898 177.693ZM297.944 166.653C297.704 167.827 297.451 168.987 297.184 170.133C296.944 171.28 296.718 172.427 296.504 173.573C296.291 174.72 296.131 175.867 296.024 177.013C295.918 178.16 295.904 179.307 295.984 180.453C296.038 180.747 295.984 181.027 295.824 181.293C295.691 181.56 295.531 181.733 295.344 181.813C294.758 182.027 294.331 181.88 294.064 181.373C293.744 180.013 293.571 178.667 293.544 177.333C293.544 176 293.638 174.68 293.824 173.373C294.038 172.067 294.304 170.773 294.624 169.493C294.971 168.187 295.318 166.893 295.664 165.613C295.798 165.08 296.011 164.787 296.304 164.733C296.598 164.68 296.878 164.707 297.144 164.813C297.544 164.947 297.798 165.213 297.904 165.613C298.011 166.013 298.024 166.36 297.944 166.653ZM296.344 188.173C296.344 188.467 296.304 188.867 296.224 189.373C296.171 189.853 296.064 190.307 295.904 190.733C295.771 191.16 295.571 191.507 295.304 191.773C295.064 192.04 294.758 192.093 294.384 191.933C294.171 191.8 293.958 191.547 293.744 191.173C293.531 190.8 293.438 190.453 293.464 190.133C293.518 189.493 293.651 188.867 293.864 188.253C294.078 187.64 294.358 187.267 294.704 187.133C294.864 187.08 295.038 187.08 295.224 187.133C295.438 187.187 295.624 187.28 295.784 187.413C295.944 187.52 296.078 187.653 296.184 187.813C296.291 187.947 296.344 188.067 296.344 188.173Z" fill="#17CF97"/>
<path d="M0.76193 12.6161C0.323099 13.3188 0.536967 14.2441 1.23962 14.683L12.69 21.8341C13.3926 22.273 14.318 22.0591 14.7568 21.3565C15.1956 20.6538 14.9818 19.7284 14.2791 19.2896L4.10103 12.933L10.4576 2.75492C10.8965 2.05227 10.6826 1.12692 9.97994 0.688084C9.27729 0.249253 8.35193 0.463121 7.9131 1.16577L0.76193 12.6161ZM218.495 149.387C218.542 150.214 219.251 150.846 220.078 150.798C220.905 150.751 221.537 150.042 221.49 149.215L218.495 149.387ZM2.37197 14.8722C43.7194 5.31596 96.6246 18.4361 139.854 44.3606C183.118 70.3051 216.171 108.748 218.495 149.387L221.49 149.215C219.082 107.114 185.006 67.9393 141.397 41.7877C97.7552 15.616 44.047 2.16114 1.69642 11.9492L2.37197 14.8722Z" fill="#17CF97"/>
</svg>
