<svg width="187" height="187" viewBox="0 0 187 187" fill="none" xmlns="http://www.w3.org/2000/svg">
<g clip-path="url(#clip0_307_320)">
<path fill-rule="evenodd" clip-rule="evenodd" d="M99.4723 134.471C78.3692 145.907 54.233 154.306 30.303 152.661C21.5959 152.063 13.536 149.552 5.26138 147.056C4.68091 146.882 4.35007 146.267 4.5242 145.683C4.70125 145.1 5.31654 144.769 5.89993 144.946C14.0149 147.393 21.9152 149.874 30.4539 150.461C54.0444 152.083 77.8235 143.73 98.6073 132.434L98.4593 132.1C96.8427 128.481 97.844 123.199 100.485 117.655C104.27 109.708 111.317 101.17 117.658 96.4532C120.509 94.3345 123.24 92.9878 125.492 92.7063C127.248 92.4857 128.754 92.8804 129.918 93.9311C132.397 96.1717 132.31 99.9941 130.345 104.426C126.238 113.696 114.176 125.904 107.634 129.819C105.59 131.041 103.512 132.242 101.402 133.412C101.669 134.056 101.933 134.686 102.218 135.287C103.033 136.996 104.035 138.491 105.965 139.516C108.975 141.109 112.582 141.385 116.274 140.973C122.035 140.325 128 137.983 132.391 135.972C156.846 124.769 168.958 105.337 175.453 85.8306C182.01 66.1293 182.869 46.3351 184.811 34.6589C184.909 34.0581 185.478 33.6547 186.079 33.7534C186.68 33.8521 187.086 34.4209 186.984 35.0217C185.031 46.7734 184.146 66.6953 177.543 86.5272C170.879 106.553 158.414 126.475 133.311 137.977C128.737 140.073 122.52 142.491 116.521 143.164C112.367 143.628 108.319 143.257 104.932 141.463C101.893 139.852 100.685 137.339 99.4723 134.471ZM100.546 131.366L100.471 131.2C99.0572 128.037 100.166 123.451 102.476 118.604C106.113 110.968 112.878 102.757 118.976 98.2237C121.066 96.668 123.066 95.5506 124.824 95.0804C126.276 94.6944 127.535 94.7496 128.438 95.568C129.294 96.3372 129.634 97.3965 129.619 98.63C129.605 100.078 129.123 101.741 128.33 103.532C124.383 112.439 112.788 124.165 106.502 127.927C104.549 129.093 102.563 130.243 100.546 131.366Z" fill="#17CF97"/>
<path fill-rule="evenodd" clip-rule="evenodd" d="M2.46358 143.644C2.55935 144.117 2.88153 144.712 3.23562 145.347C4.0773 146.862 5.27598 148.476 5.81002 149.26C6.1525 149.765 6.01899 150.45 5.51688 150.792C5.01186 151.135 4.32689 151.004 3.98442 150.499C3.33138 149.538 1.738 147.385 0.8818 145.6C0.423224 144.642 0.185239 143.757 0.237482 143.121C0.324553 142.039 1.18075 141.362 2.87863 141.403C4.88707 141.452 8.61662 142.46 11.7396 141.249C12.3055 141.029 12.9469 141.313 13.1646 141.879C13.3852 142.448 13.1037 143.086 12.5348 143.307C9.55699 144.459 6.08575 143.905 3.74934 143.673C3.30528 143.629 2.77703 143.635 2.46358 143.644Z" fill="#17CF97"/>
</g>
<defs>
<clipPath id="clip0_307_320">
<rect width="187" height="187" fill="white" transform="matrix(-1 0 0 1 187 0)"/>
</clipPath>
</defs>
</svg>
