<svg width="1440" height="1024" viewBox="0 0 1440 1024" fill="none" xmlns="http://www.w3.org/2000/svg">
<g clip-path="url(#clip0_21_14)">
<rect width="1440" height="1024" fill="#082832"/>
<g opacity="0.12">
<line x1="197" y1="472.5" x2="1242" y2="472.5" stroke="white"/>
<line x1="81" y1="792.5" x2="1358" y2="792.5" stroke="white"/>
<line x1="81" y1="728.5" x2="1358" y2="728.5" stroke="white"/>
<line x1="197" y1="408.5" x2="1242" y2="408.5" stroke="white"/>
<line x1="197" y1="664.5" x2="1242" y2="664.5" stroke="white"/>
<line x1="81" y1="984.5" x2="1358" y2="984.5" stroke="white"/>
<line x1="81" y1="344.5" x2="1358" y2="344.5" stroke="white"/>
<line x1="197" y1="600.5" x2="1242" y2="600.5" stroke="white"/>
<line x1="81" y1="920.5" x2="1358" y2="920.5" stroke="white"/>
<line x1="197" y1="536.5" x2="1242" y2="536.5" stroke="white"/>
<line x1="81" y1="856.5" x2="1358" y2="856.5" stroke="white"/>
<line x1="4.37114e-08" y1="248.5" x2="1440" y2="248.5" stroke="white"/>
<line x1="4.37114e-08" y1="80.5001" x2="1440" y2="80.5003" stroke="white"/>
<line x1="4.37114e-08" y1="0.5" x2="1440" y2="0.500126" stroke="white"/>
<line x1="81.5" y1="1011" x2="81.5001" y2="80" stroke="white"/>
<line x1="661.5" y1="793" x2="661.5" y2="536" stroke="white"/>
<line x1="1009.5" y1="793" x2="1009.5" y2="536" stroke="white"/>
<line x1="429.5" y1="793" x2="429.5" y2="536" stroke="white"/>
<line x1="1357.5" y1="1011" x2="1357.5" y2="80" stroke="white"/>
<line x1="313.5" y1="921" x2="313.5" y2="410" stroke="white"/>
<line x1="1241.5" y1="1011" x2="1241.5" y2="248" stroke="white"/>
<line x1="197.5" y1="1011" x2="197.5" y2="248" stroke="white"/>
<line x1="777.5" y1="793" x2="777.5" y2="536" stroke="white"/>
<line x1="1125.5" y1="921" x2="1125.5" y2="410" stroke="white"/>
<g clip-path="url(#clip1_21_14)">
<mask id="path-25-inside-1_21_14" fill="white">
<path d="M1357 344H1476V729H1357V344Z"/>
</mask>
<line x1="1296.65" y1="389.124" x2="1492.13" y2="297.97" stroke="white"/>
<line x1="1296.65" y1="620.512" x2="1492.13" y2="529.359" stroke="white"/>
<line x1="1296.65" y1="504.818" x2="1492.13" y2="413.665" stroke="white"/>
<line x1="1296.65" y1="736.207" x2="1492.13" y2="645.053" stroke="white"/>
<line x1="1296.65" y1="405.651" x2="1492.13" y2="314.498" stroke="white"/>
<line x1="1296.65" y1="637.04" x2="1492.13" y2="545.887" stroke="white"/>
<line x1="1296.65" y1="521.346" x2="1492.13" y2="430.192" stroke="white"/>
<line x1="1296.65" y1="752.735" x2="1492.13" y2="661.581" stroke="white"/>
<line x1="1296.65" y1="422.179" x2="1492.13" y2="331.026" stroke="white"/>
<line x1="1296.65" y1="653.568" x2="1492.13" y2="562.414" stroke="white"/>
<line x1="1296.65" y1="537.874" x2="1492.13" y2="446.72" stroke="white"/>
<line x1="1296.65" y1="769.262" x2="1492.13" y2="678.109" stroke="white"/>
<line x1="1296.65" y1="438.707" x2="1492.13" y2="347.553" stroke="white"/>
<line x1="1296.65" y1="670.096" x2="1492.13" y2="578.942" stroke="white"/>
<line x1="1296.65" y1="554.401" x2="1492.13" y2="463.248" stroke="white"/>
<line x1="1296.65" y1="785.79" x2="1492.13" y2="694.637" stroke="white"/>
<line x1="1296.65" y1="455.235" x2="1492.13" y2="364.081" stroke="white"/>
<line x1="1296.65" y1="686.624" x2="1492.13" y2="595.47" stroke="white"/>
<line x1="1296.65" y1="570.929" x2="1492.13" y2="479.776" stroke="white"/>
<line x1="1296.65" y1="802.318" x2="1492.13" y2="711.164" stroke="white"/>
<line x1="1296.65" y1="471.763" x2="1492.13" y2="380.609" stroke="white"/>
<line x1="1296.65" y1="703.151" x2="1492.13" y2="611.998" stroke="white"/>
<line x1="1296.65" y1="587.457" x2="1492.13" y2="496.303" stroke="white"/>
<line x1="1296.65" y1="818.846" x2="1492.13" y2="727.692" stroke="white"/>
<line x1="1296.65" y1="488.29" x2="1492.13" y2="397.137" stroke="white"/>
<line x1="1296.65" y1="719.679" x2="1492.13" y2="628.526" stroke="white"/>
<line x1="1296.65" y1="603.985" x2="1492.13" y2="512.831" stroke="white"/>
</g>
<path d="M1357 345H1476V343H1357V345ZM1476 728H1357V730H1476V728Z" fill="white" mask="url(#path-25-inside-1_21_14)"/>
<g clip-path="url(#clip2_21_14)">
<mask id="path-54-inside-2_21_14" fill="white">
<path d="M-37 344H82V729H-37V344Z"/>
</mask>
<line x1="-97.35" y1="389.124" x2="98.1293" y2="297.97" stroke="white"/>
<line x1="-97.35" y1="620.512" x2="98.1293" y2="529.359" stroke="white"/>
<line x1="-97.35" y1="504.818" x2="98.1293" y2="413.665" stroke="white"/>
<line x1="-97.35" y1="736.207" x2="98.1293" y2="645.053" stroke="white"/>
<line x1="-97.35" y1="405.651" x2="98.1293" y2="314.498" stroke="white"/>
<line x1="-97.35" y1="637.04" x2="98.1293" y2="545.887" stroke="white"/>
<line x1="-97.35" y1="521.346" x2="98.1293" y2="430.192" stroke="white"/>
<line x1="-97.35" y1="752.735" x2="98.1293" y2="661.581" stroke="white"/>
<line x1="-97.35" y1="422.179" x2="98.1293" y2="331.026" stroke="white"/>
<line x1="-97.35" y1="653.568" x2="98.1293" y2="562.414" stroke="white"/>
<line x1="-97.35" y1="537.874" x2="98.1293" y2="446.72" stroke="white"/>
<line x1="-97.35" y1="769.262" x2="98.1293" y2="678.109" stroke="white"/>
<line x1="-97.35" y1="438.707" x2="98.1293" y2="347.553" stroke="white"/>
<line x1="-97.35" y1="670.096" x2="98.1293" y2="578.942" stroke="white"/>
<line x1="-97.35" y1="554.401" x2="98.1293" y2="463.248" stroke="white"/>
<line x1="-97.35" y1="785.79" x2="98.1293" y2="694.637" stroke="white"/>
<line x1="-97.35" y1="455.235" x2="98.1293" y2="364.081" stroke="white"/>
<line x1="-97.35" y1="686.624" x2="98.1293" y2="595.47" stroke="white"/>
<line x1="-97.35" y1="570.929" x2="98.1293" y2="479.776" stroke="white"/>
<line x1="-97.35" y1="802.318" x2="98.1293" y2="711.164" stroke="white"/>
<line x1="-97.35" y1="471.763" x2="98.1293" y2="380.609" stroke="white"/>
<line x1="-97.35" y1="703.151" x2="98.1293" y2="611.998" stroke="white"/>
<line x1="-97.35" y1="587.457" x2="98.1293" y2="496.303" stroke="white"/>
<line x1="-97.35" y1="818.846" x2="98.1293" y2="727.692" stroke="white"/>
<line x1="-97.35" y1="488.29" x2="98.1293" y2="397.137" stroke="white"/>
<line x1="-97.35" y1="719.679" x2="98.1293" y2="628.526" stroke="white"/>
<line x1="-97.35" y1="603.985" x2="98.1293" y2="512.831" stroke="white"/>
</g>
<path d="M-37 345H82V343H-37V345ZM82 728H-37V730H82V728Z" fill="white" mask="url(#path-54-inside-2_21_14)"/>
</g>
</g>
<defs>
<clipPath id="clip0_21_14">
<rect width="1440" height="1024" fill="white"/>
</clipPath>
<clipPath id="clip1_21_14">
<path d="M1357 344H1476V729H1357V344Z" fill="white"/>
</clipPath>
<clipPath id="clip2_21_14">
<path d="M-37 344H82V729H-37V344Z" fill="white"/>
</clipPath>
</defs>
</svg>
