<svg width="1441" height="1024" viewBox="0 0 1441 1024" fill="none" xmlns="http://www.w3.org/2000/svg">
<mask id="mask0_21_169" style="mask-type:alpha" maskUnits="userSpaceOnUse" x="-330" y="-178" width="1956" height="1440">
<path d="M758.66 720.172C758.66 572.912 661.295 453.535 541.19 453.535C421.084 453.535 -329.322 970.032 -329.322 1117.29C-329.322 1264.55 748.866 1061.82 868.971 1061.82C989.077 1061.82 758.66 867.432 758.66 720.172Z" fill="url(#paint0_linear_21_169)"/>
<path d="M843.125 89.1471C843.125 -58.1128 745.76 -177.491 625.655 -177.491C505.549 -177.491 -163.542 -143.165 -163.542 4.0947C-163.542 151.355 -114.084 500.179 6.02197 500.179C126.128 500.179 843.125 236.407 843.125 89.1471Z" fill="url(#paint1_radial_21_169)"/>
<path d="M1089.82 719.768C1413.89 427.08 1264.19 574.168 1542.53 581.578C1586.2 573.167 1660.32 572.767 1607.51 638.458C1541.5 720.573 1562.77 778.571 1480.27 868.035C1397.77 957.499 1347.52 1048.39 1222.97 1190.68C1098.41 1332.97 1088.83 1215.68 948.408 1226.8C807.988 1237.92 872.034 1220.26 678.29 1013.8C484.546 807.346 765.755 1012.46 1089.82 719.768Z" fill="#D9D9D9"/>
<path d="M783.874 259.386C350.194 208.328 559.47 224.087 381.712 9.76825C346.622 -17.5468 297.497 -73.0593 381.712 -76.5893C486.98 -81.0017 516.607 -135.212 638.264 -132.06C759.921 -128.908 861.407 -150.97 1050.51 -150.97C1239.62 -150.97 1157.67 -66.5037 1258.53 31.8307C1359.38 130.165 1303.91 93.6046 1276.18 375.371C1248.44 657.136 1217.55 310.445 783.874 259.386Z" fill="#D9D9D9"/>
</mask>
<g mask="url(#mask0_21_169)">
<line y1="-0.630349" x2="1511.58" y2="-0.630349" transform="matrix(1 0 0 -1 -31.7954 413.822)" stroke="white" stroke-opacity="0.09" stroke-width="1.2607"/>
<line y1="-0.630349" x2="1511.58" y2="-0.630349" transform="matrix(1 0 0 -1 -31.7954 91.0837)" stroke="white" stroke-opacity="0.09" stroke-width="1.2607"/>
<line y1="-0.630349" x2="1511.58" y2="-0.630349" transform="matrix(1 0 0 -1 -31.7954 736.56)" stroke="white" stroke-opacity="0.09" stroke-width="1.2607"/>
<line y1="-0.630349" x2="1511.58" y2="-0.630349" transform="matrix(1 0 0 -1 -31.7954 575.192)" stroke="white" stroke-opacity="0.09" stroke-width="1.2607"/>
<line y1="-0.630349" x2="1511.58" y2="-0.630349" transform="matrix(1 0 0 -1 -31.7954 252.454)" stroke="white" stroke-opacity="0.09" stroke-width="1.2607"/>
<line y1="-0.630349" x2="1511.58" y2="-0.630349" transform="matrix(1 0 0 -1 -31.7954 897.93)" stroke="white" stroke-opacity="0.09" stroke-width="1.2607"/>
<line y1="-0.630349" x2="1511.58" y2="-0.630349" transform="matrix(1 0 0 -1 -31.7954 494.507)" stroke="white" stroke-opacity="0.09" stroke-width="1.2607"/>
<line y1="-0.630349" x2="1511.58" y2="-0.630349" transform="matrix(1 0 0 -1 -31.7954 171.769)" stroke="white" stroke-opacity="0.09" stroke-width="1.2607"/>
<line y1="-0.630349" x2="1511.58" y2="-0.630349" transform="matrix(1 0 0 -1 -31.7954 817.245)" stroke="white" stroke-opacity="0.09" stroke-width="1.2607"/>
<line y1="-0.630349" x2="1511.58" y2="-0.630349" transform="matrix(1 0 0 -1 -31.7954 10.3986)" stroke="white" stroke-opacity="0.09" stroke-width="1.2607"/>
<line y1="-0.630349" x2="1511.58" y2="-0.630349" transform="matrix(1 0 0 -1 -31.7954 655.877)" stroke="white" stroke-opacity="0.09" stroke-width="1.2607"/>
<line y1="-0.630349" x2="1511.58" y2="-0.630349" transform="matrix(1 0 0 -1 -31.7954 333.137)" stroke="white" stroke-opacity="0.09" stroke-width="1.2607"/>
<line y1="-0.630349" x2="1511.58" y2="-0.630349" transform="matrix(1 0 0 -1 -31.7954 978.615)" stroke="white" stroke-opacity="0.09" stroke-width="1.2607"/>
<line y1="-0.630349" x2="1167.41" y2="-0.630349" transform="matrix(-4.37114e-08 -1 -1 4.37114e-08 14.8495 1088.3)" stroke="white" stroke-opacity="0.09" stroke-width="1.2607"/>
<line y1="-0.630349" x2="1167.41" y2="-0.630349" transform="matrix(-4.37114e-08 -1 -1 4.37114e-08 660.33 1088.3)" stroke="white" stroke-opacity="0.09" stroke-width="1.2607"/>
<line y1="-0.630349" x2="1167.41" y2="-0.630349" transform="matrix(-4.37114e-08 -1 -1 4.37114e-08 337.59 1088.3)" stroke="white" stroke-opacity="0.09" stroke-width="1.2607"/>
<line y1="-0.630349" x2="1167.41" y2="-0.630349" transform="matrix(-4.37114e-08 -1 -1 4.37114e-08 983.066 1088.3)" stroke="white" stroke-opacity="0.09" stroke-width="1.2607"/>
<line y1="-0.630349" x2="1167.41" y2="-0.630349" transform="matrix(-4.37114e-08 -1 -1 4.37114e-08 1305.81 1088.3)" stroke="white" stroke-opacity="0.09" stroke-width="1.2607"/>
<line y1="-0.630349" x2="1167.41" y2="-0.630349" transform="matrix(-4.37114e-08 -1 -1 4.37114e-08 176.22 1088.3)" stroke="white" stroke-opacity="0.09" stroke-width="1.2607"/>
<line y1="-0.630349" x2="1167.41" y2="-0.630349" transform="matrix(-4.37114e-08 -1 -1 4.37114e-08 821.696 1088.3)" stroke="white" stroke-opacity="0.09" stroke-width="1.2607"/>
<line y1="-0.630349" x2="1167.41" y2="-0.630349" transform="matrix(-4.37114e-08 -1 -1 4.37114e-08 498.96 1088.3)" stroke="white" stroke-opacity="0.09" stroke-width="1.2607"/>
<line y1="-0.630349" x2="1167.41" y2="-0.630349" transform="matrix(-4.37114e-08 -1 -1 4.37114e-08 1144.44 1088.3)" stroke="white" stroke-opacity="0.09" stroke-width="1.2607"/>
<line y1="-0.630349" x2="1167.41" y2="-0.630349" transform="matrix(-4.37114e-08 -1 -1 4.37114e-08 95.5368 1088.3)" stroke="white" stroke-opacity="0.09" stroke-width="1.2607"/>
<line y1="-0.630349" x2="1167.41" y2="-0.630349" transform="matrix(-4.37114e-08 -1 -1 4.37114e-08 741.013 1088.3)" stroke="white" stroke-opacity="0.09" stroke-width="1.2607"/>
<line y1="-0.630349" x2="1167.41" y2="-0.630349" transform="matrix(-4.37114e-08 -1 -1 4.37114e-08 418.273 1088.3)" stroke="white" stroke-opacity="0.09" stroke-width="1.2607"/>
<line y1="-0.630349" x2="1167.41" y2="-0.630349" transform="matrix(-4.37114e-08 -1 -1 4.37114e-08 1063.75 1088.3)" stroke="white" stroke-opacity="0.09" stroke-width="1.2607"/>
<line y1="-0.630349" x2="1167.41" y2="-0.630349" transform="matrix(-4.37114e-08 -1 -1 4.37114e-08 1386.49 1088.3)" stroke="white" stroke-opacity="0.09" stroke-width="1.2607"/>
<line y1="-0.630349" x2="1167.41" y2="-0.630349" transform="matrix(-4.37114e-08 -1 -1 4.37114e-08 256.907 1088.3)" stroke="white" stroke-opacity="0.09" stroke-width="1.2607"/>
<line y1="-0.630349" x2="1167.41" y2="-0.630349" transform="matrix(-4.37114e-08 -1 -1 4.37114e-08 902.383 1088.3)" stroke="white" stroke-opacity="0.09" stroke-width="1.2607"/>
<line y1="-0.630349" x2="1167.41" y2="-0.630349" transform="matrix(-4.37114e-08 -1 -1 4.37114e-08 579.643 1088.3)" stroke="white" stroke-opacity="0.09" stroke-width="1.2607"/>
<line y1="-0.630349" x2="1167.41" y2="-0.630349" transform="matrix(-4.37114e-08 -1 -1 4.37114e-08 1225.12 1088.3)" stroke="white" stroke-opacity="0.09" stroke-width="1.2607"/>
<g opacity="0.7">
<rect width="80.2262" height="80.2262" transform="matrix(1 0 0 -1 822.385 253.141)" fill="#24613D" fill-opacity="0.36"/>
<rect width="80.2262" height="80.2262" transform="matrix(1 0 0 -1 418.962 253.141)" fill="#24613D" fill-opacity="0.25"/>
<rect width="80.2262" height="79.0801" transform="matrix(1 0 0 -1 1145.58 817.017)" fill="#24613D" fill-opacity="0.11"/>
<rect width="80.2262" height="79.0801" transform="matrix(1 0 0 -1 499.188 897.243)" fill="#0DA932" fill-opacity="0.31"/>
<rect width="80.2262" height="79.0801" transform="matrix(1 0 0 -1 1064.21 736.791)" fill="#24613D" fill-opacity="0.11"/>
<rect width="80.2262" height="79.0801" transform="matrix(1 0 0 -1 417.816 817.017)" fill="#0DA932" fill-opacity="0.31"/>
<rect width="80.2262" height="79.0801" transform="matrix(1 0 0 -1 1064.21 817.017)" fill="#24613D" fill-opacity="0.11"/>
<rect width="80.2262" height="79.0801" transform="matrix(1 0 0 -1 417.816 897.243)" fill="#0DA932" fill-opacity="0.31"/>
<rect width="80.2262" height="80.2262" transform="matrix(1 0 0 -1 338.736 253.141)" fill="#24613D" fill-opacity="0.25"/>
<rect width="80.2262" height="81.3723" transform="matrix(1 0 0 -1 338.736 172.915)" fill="#24613D" fill-opacity="0.25"/>
<rect width="80.2262" height="80.2262" transform="matrix(1 0 0 -1 177.137 333.367)" fill="#24613D" fill-opacity="0.25"/>
<rect width="80.2262" height="80.2262" transform="matrix(1 0 0 -1 983.984 978.615)" fill="#0FAE27" fill-opacity="0.61"/>
<rect width="80.2262" height="80.2262" transform="matrix(1 0 0 -1 903.758 1070.3)" fill="#0FAE27" fill-opacity="0.61"/>
<rect width="80.2262" height="81.3723" transform="matrix(1 0 0 -1 902.881 979.762)" fill="#0FAE27" fill-opacity="0.61"/>
<rect width="81.3723" height="82.5184" transform="matrix(1 0 0 -1 177.138 899.535)" fill="#0D992F" fill-opacity="0.24"/>
<rect width="81.3723" height="80.2262" transform="matrix(1 0 0 -1 95.7652 979.761)" fill="#0D992F" fill-opacity="0.24"/>
<rect width="81.3723" height="80.2262" transform="matrix(1 0 0 -1 15.539 978.615)" fill="#0D992F" fill-opacity="0.24"/>
<rect width="81.3723" height="82.5184" transform="matrix(1 0 0 -1 95.7652 899.535)" fill="#0D992F" fill-opacity="0.24"/>
<rect width="81.3723" height="80.2262" transform="matrix(1 0 0 -1 418.962 1059.99)" fill="#0B902B"/>
<rect width="80.2262" height="81.3723" transform="matrix(1 0 0 -1 177.138 737.937)" fill="#0D992F" fill-opacity="0.24"/>
<rect width="80.2262" height="80.2262" transform="matrix(1 0 0 -1 1145.58 333.367)" fill="#1B8B3B" fill-opacity="0.26"/>
<rect width="80.2262" height="80.2262" transform="matrix(1 0 0 -1 1225.81 253.141)" fill="#1B8B3B" fill-opacity="0.26"/>
</g>
</g>
<defs>
<linearGradient id="paint0_linear_21_169" x1="190.086" y1="1043.54" x2="644.567" y2="801.487" gradientUnits="userSpaceOnUse">
<stop stop-color="white"/>
<stop offset="1" stop-color="white" stop-opacity="0"/>
</linearGradient>
<radialGradient id="paint1_radial_21_169" cx="0" cy="0" r="1" gradientUnits="userSpaceOnUse" gradientTransform="translate(155.415 82.8883) rotate(29.3932) scale(777.019 1335.47)">
<stop stop-color="white"/>
<stop offset="1" stop-color="white" stop-opacity="0"/>
</radialGradient>
</defs>
</svg>
