<svg width="79" height="31" viewBox="0 0 79 31" fill="none" xmlns="http://www.w3.org/2000/svg">
<g clip-path="url(#clip0_2058_866)">
<path d="M18.928 0.744385C15.8819 0.744385 12.9606 1.95443 10.8067 4.10834L3.77729 11.1378C1.62338 13.2917 0.413326 16.213 0.413326 19.2591C0.413326 25.6023 5.55547 30.7444 11.8986 30.7444C14.9447 30.7444 17.866 29.5343 20.0199 27.3804L24.8822 22.5181C24.8823 22.5182 24.8822 22.518 24.8822 22.5181L39.0493 8.35098C40.078 7.32229 41.4732 6.74438 42.928 6.74438C45.3636 6.74438 47.4285 8.33179 48.1444 10.5285L52.6155 6.05734C50.5758 2.86273 46.9993 0.744385 42.928 0.744385C39.8819 0.744385 36.9606 1.95443 34.8067 4.10834L15.7773 23.1378C14.7486 24.1665 13.3534 24.7444 11.8986 24.7444C8.86917 24.7444 6.41333 22.2886 6.41333 19.2591C6.41333 17.8043 6.99124 16.4091 8.01993 15.3804L15.0493 8.35098C16.078 7.32229 17.4732 6.74438 18.928 6.74438C21.3637 6.74438 23.4285 8.33187 24.1444 10.5286L28.6156 6.05745C26.5759 2.86278 22.9994 0.744385 18.928 0.744385Z" fill="#A46EDB"/>
<path d="M39.7773 23.1378C38.7486 24.1665 37.3534 24.7444 35.8986 24.7444C33.4633 24.7444 31.3986 23.1574 30.6825 20.9611L26.2115 25.4321C28.2513 28.6263 31.8276 30.7444 35.8986 30.7444C38.9447 30.7444 41.866 29.5343 44.0199 27.3804L63.0493 8.35098C64.078 7.32229 65.4732 6.74438 66.928 6.74438C69.9575 6.74438 72.4133 9.20022 72.4133 12.2297C72.4133 13.6845 71.8354 15.0797 70.8067 16.1084L63.7773 23.1378C62.7486 24.1665 61.3534 24.7444 59.8986 24.7444C57.4631 24.7444 55.3983 23.1571 54.6823 20.9606L50.2113 25.4317C52.251 28.6262 55.8274 30.7444 59.8986 30.7444C62.9447 30.7444 65.866 29.5343 68.0199 27.3804L75.0493 20.351C77.2032 18.1971 78.4133 15.2758 78.4133 12.2297C78.4133 5.88652 73.2712 0.744385 66.928 0.744385C63.8819 0.744385 60.9606 1.95443 58.8067 4.10834L39.7773 23.1378Z" fill="#A46EDB"/>
</g>
<defs>
<clipPath id="clip0_2058_866">
<rect width="78" height="30" fill="white" transform="translate(0.413326 0.744385)"/>
</clipPath>
</defs>
</svg>
