<svg  viewBox="0 0 56 56" fill="none" xmlns="http://www.w3.org/2000/svg">
<g clip-path="url(#clip0_109_116)">
<path fill-rule="evenodd" clip-rule="evenodd" d="M32.6844 32.2634L31.9171 33.5957C31.686 33.9971 31.2581 34.2444 30.795 34.2444H24.9173C24.4541 34.2444 24.0262 33.9971 23.7951 33.5957L23.0278 32.2634H32.6844ZM34.8324 28.5337L33.4795 30.8827H22.2326L20.8798 28.5337H34.8324ZM33.5292 24.8865L34.8345 27.1531H20.8777L22.183 24.8865H33.5292ZM30.795 21.4387C31.2581 21.4387 31.686 21.686 31.9171 22.0873L32.7341 23.5059H22.9781L23.7951 22.0873C24.0262 21.686 24.4541 21.4387 24.9173 21.4387H30.795Z" fill="#00435B"/>
<path d="M16.363 20.8203C15.7118 17.6631 15.5721 15.2415 15.993 13.4832C16.2433 12.4374 16.7009 11.5843 17.3968 10.9688C18.1314 10.3189 19.0602 10.0001 20.1038 10.0001C21.8255 10.0001 23.6354 10.7852 25.5696 12.2767C26.3586 12.885 27.1774 13.6183 28.0277 14.4769C28.0954 14.3897 28.1719 14.3076 28.2572 14.2316C30.6612 12.0892 32.6853 10.7581 34.4165 10.2449C35.4459 9.9397 36.4123 9.91063 37.2924 10.2068C38.2214 10.5194 38.9616 11.1657 39.4838 12.0709C40.3458 13.5648 40.573 15.5278 40.2517 17.9516C40.1207 18.9396 39.8968 20.0158 39.5804 21.1818C39.6998 21.1963 39.8194 21.2227 39.9379 21.262C42.9882 22.2728 45.1481 23.3598 46.4558 24.6021C47.2338 25.3412 47.7419 26.1641 47.9256 27.0749C48.1196 28.0363 47.9304 29.0006 47.4088 29.9051C46.5485 31.3969 44.9667 32.5734 42.7132 33.5053C41.8083 33.8795 40.7846 34.2184 39.6407 34.5232C39.6929 34.641 39.7334 34.7662 39.7604 34.8975C40.4116 38.0547 40.5513 40.4762 40.1304 42.2345C39.8801 43.2803 39.4225 44.1335 38.7266 44.749C37.992 45.3988 37.0632 45.7177 36.0196 45.7177C34.2979 45.7177 32.488 44.9326 30.5538 43.4411C29.7564 42.8263 28.9286 42.0838 28.0685 41.2134C27.98 41.3518 27.8714 41.4805 27.7428 41.595C25.3388 43.7374 23.3147 45.0685 21.5835 45.5817C20.5541 45.8869 19.5877 45.916 18.7076 45.6198C17.7786 45.3072 17.0384 44.6609 16.5162 43.7557C15.6542 42.2618 15.427 40.2988 15.7483 37.875C15.884 36.8513 16.1195 35.7329 16.4542 34.518C16.3234 34.5047 16.192 34.4771 16.0621 34.434C13.0118 33.4232 10.8519 32.3361 9.54421 31.0939C8.76618 30.3548 8.25811 29.5319 8.07445 28.6211C7.88059 27.6597 8.06962 26.6953 8.59125 25.7908C9.45154 24.2991 11.0333 23.1225 13.2868 22.1906C14.2186 21.8053 15.2766 21.4574 16.4619 21.1456C16.4196 21.0422 16.3863 20.9335 16.363 20.8203Z" fill="#002B3B"/>
<path fill-rule="evenodd" clip-rule="evenodd" d="M24.1967 19.8147C25.7778 19.6888 27.4076 19.6333 29.0859 19.648C29.4038 19.6508 29.6637 19.3953 29.6665 19.0775C29.6676 18.9436 29.6221 18.8135 29.5377 18.7096C25.7178 14.0062 22.5723 11.6545 20.1014 11.6545C17.5504 11.6545 16.8226 14.4665 17.9181 20.0904C17.9782 20.3986 18.2742 20.6018 18.5835 20.547C20.5338 20.2014 22.4048 19.9573 24.1967 19.8147Z" fill="#FF4154"/>
<path fill-rule="evenodd" clip-rule="evenodd" d="M33.0728 20.5888C33.9859 21.9046 34.8623 23.298 35.7019 24.7691C35.8595 25.0452 36.211 25.1412 36.4871 24.9837C36.6028 24.9176 36.6921 24.8134 36.7396 24.6889C38.9004 19.0211 39.3545 15.1124 38.1019 12.9627C36.8094 10.7444 33.993 11.5114 29.6529 15.2638C29.4143 15.4701 29.3862 15.8301 29.5899 16.0709C30.8794 17.5952 32.0404 19.1012 33.0728 20.5888Z" fill="#FF4154"/>
<path fill-rule="evenodd" clip-rule="evenodd" d="M36.9052 28.5069C36.2218 29.9433 35.4537 31.3868 34.6008 32.8377C34.4397 33.1117 34.5312 33.4644 34.8052 33.6255C34.9212 33.6937 35.0575 33.7191 35.1903 33.6973C41.1452 32.7181 44.741 31.1554 45.978 29.0091C47.2554 26.7924 45.2011 24.7607 39.8149 22.9139C39.5182 22.8121 39.1946 22.9668 39.0874 23.2615C38.4077 25.1295 37.6803 26.878 36.9052 28.5069Z" fill="#FF4154"/>
<path fill-rule="evenodd" clip-rule="evenodd" d="M32.0192 35.9404C30.438 36.0663 28.8082 36.1219 27.1299 36.1072C26.812 36.1044 26.5521 36.3598 26.5494 36.6776C26.5482 36.8115 26.5937 36.9416 26.6781 37.0455C30.4981 41.7489 33.6435 44.1006 36.1145 44.1006C38.6655 44.1006 39.3932 41.2886 38.2977 35.6648C38.2376 35.3565 37.9416 35.1533 37.6324 35.2081C35.6821 35.5537 33.811 35.7978 32.0192 35.9404Z" fill="#FF4154"/>
<path fill-rule="evenodd" clip-rule="evenodd" d="M22.9273 35.2382C22.0142 33.9224 21.1378 32.529 20.2981 31.0579C20.1406 30.7818 19.7891 30.6858 19.513 30.8434C19.3972 30.9094 19.308 31.0136 19.2605 31.1382C17.0997 36.8059 16.6455 40.7146 17.8981 42.8643C19.1907 45.0826 22.007 44.3156 26.3471 40.5632C26.5858 40.3569 26.6139 39.997 26.4101 39.7561C25.1206 38.2318 23.9597 36.7258 22.9273 35.2382Z" fill="#FF4154"/>
<path fill-rule="evenodd" clip-rule="evenodd" d="M19.0948 27.1043C19.7782 25.668 20.5464 24.2245 21.3992 22.7736C21.5603 22.4996 21.4688 22.1469 21.1948 21.9858C21.0788 21.9176 20.9425 21.8922 20.8097 21.9141C14.8548 22.8931 11.259 24.4559 10.0221 26.6022C8.74457 28.8189 10.7989 30.8506 16.1851 32.6974C16.4818 32.7991 16.8054 32.6445 16.9126 32.3497C17.5923 30.4818 18.3197 28.7333 19.0948 27.1043Z" fill="#FF4154"/>
<path fill-rule="evenodd" clip-rule="evenodd" d="M25.3898 21.5106H30.3235C31.045 21.5106 31.7115 21.8965 32.0706 22.5223L34.5479 26.8389C34.9043 27.4598 34.9043 28.2233 34.5479 28.8442L32.0706 33.1608C31.7115 33.7866 31.045 34.1725 30.3235 34.1725H25.3898C24.6682 34.1725 24.0018 33.7866 23.6427 33.1608L21.1654 28.8442C20.809 28.2233 20.809 27.4598 21.1654 26.8389L23.6427 22.5223C24.0018 21.8965 24.6682 21.5106 25.3898 21.5106ZM29.5716 22.8135C30.2935 22.8135 30.9602 23.1998 31.3192 23.8261L33.0467 26.8398C33.4024 27.4603 33.4024 28.2228 33.0467 28.8433L31.3192 31.857C30.9602 32.4833 30.2935 32.8697 29.5716 32.8697H26.1417C25.4198 32.8697 24.7531 32.4833 24.3941 31.857L22.6666 28.8433C22.311 28.2228 22.311 27.4603 22.6666 26.8398L24.3941 23.8261C24.7531 23.1998 25.4198 22.8135 26.1417 22.8135H29.5716ZM28.7611 24.2384H26.9522C26.231 24.2384 25.5649 24.6239 25.2056 25.2493L24.2928 26.838C23.9357 27.4594 23.9357 28.2237 24.2928 28.8451L25.2056 30.4339C25.5649 31.0592 26.231 31.4447 26.9522 31.4447H28.7611C29.4823 31.4447 30.1484 31.0592 30.5077 30.4339L31.4206 28.8451C31.7776 28.2237 31.7776 27.4594 31.4206 26.838L30.5077 25.2493C30.1484 24.6239 29.4823 24.2384 28.7611 24.2384ZM27.9807 25.6023C28.7013 25.6023 29.367 25.9873 29.7266 26.6119L29.856 26.8367C30.214 27.4588 30.214 28.2243 29.856 28.8464L29.7266 29.0713C29.367 29.6958 28.7013 30.0808 27.9807 30.0808H27.7326C27.012 30.0808 26.3462 29.6958 25.9868 29.0713L25.8574 28.8464C25.4993 28.2243 25.4993 27.4588 25.8574 26.8367L25.9868 26.6119C26.3462 25.9873 27.012 25.6023 27.7326 25.6023H27.9807ZM27.857 26.9459C27.5362 26.9459 27.2404 27.1166 27.0803 27.3937C26.9202 27.6708 26.9202 28.0123 27.0803 28.2894C27.2404 28.5665 27.5362 28.7373 27.8563 28.7373C28.1771 28.7373 28.4728 28.5665 28.633 28.2894C28.7931 28.0123 28.7931 27.6708 28.633 27.3937C28.4728 27.1166 28.1771 26.9459 27.857 26.9459Z" fill="#FFD94C"/>
</g>
<defs>
<clipPath id="clip0_109_116">
<rect width="40" height="36" fill="white" transform="translate(8 10)"/>
</clipPath>
</defs>
</svg>
